<?xml version="1.0" encoding="UTF-8"?>
<svg xmlns="http://www.w3.org/2000/svg" xmlns:xlink="http://www.w3.org/1999/xlink" width="260pt" height="260pt" viewBox="0 0 260 260" version="1.1">
<g id="surface1">
<path style=" stroke:none;fill-rule:nonzero;fill:rgb(100%,98.039216%,97.647059%);fill-opacity:1;" d="M 242.214844 181.425781 L 154.175781 203.585938 C 153.421875 200.996094 152.027344 198.546875 149.992188 196.511719 L 121.941406 168.464844 C 118.464844 164.988281 113.839844 163.074219 108.917969 163.074219 L 52.972656 163.074219 C 51.914062 153.429688 43.722656 145.898438 33.796875 145.898438 L 19.289062 145.898438 C 8.652344 145.898438 0 154.546875 0 165.1875 L 0 204.003906 C 0 206.113281 1.710938 207.824219 3.820312 207.824219 C 5.925781 207.824219 7.640625 206.113281 7.640625 204.003906 L 7.640625 165.1875 C 7.640625 158.757812 12.867188 153.535156 19.289062 153.535156 L 33.796875 153.535156 C 39.496094 153.535156 44.257812 157.652344 45.253906 163.074219 C 45.539062 164.597656 45.449219 160.03125 45.449219 232.945312 C 45.449219 239.371094 40.21875 244.597656 33.796875 244.597656 L 19.289062 244.597656 C 12.867188 244.597656 7.640625 239.371094 7.640625 232.945312 L 7.640625 219.28125 C 7.640625 217.175781 5.925781 215.464844 3.820312 215.464844 C 1.710938 215.464844 0 217.175781 0 219.28125 L 0 232.945312 C 0 243.582031 8.652344 252.234375 19.289062 252.234375 L 33.796875 252.234375 C 44.4375 252.234375 53.089844 243.582031 53.089844 232.945312 L 53.089844 226.183594 C 81.214844 231.042969 75.164062 229.273438 117.085938 249.785156 C 123.898438 253.117188 130.46875 259.449219 144.367188 259.449219 C 151.777344 259.449219 159 257.363281 165.273438 253.417969 L 237.917969 216.582031 C 239.800781 215.628906 240.550781 213.328125 239.597656 211.449219 C 238.644531 209.566406 236.34375 208.816406 234.464844 209.769531 C 234.203125 209.902344 161.578125 246.710938 161.332031 246.867188 C 156.25 250.101562 150.386719 251.808594 144.367188 251.808594 C 132.78125 251.808594 127.75 246.5 120.441406 242.921875 C 77.816406 222.070312 83.875 223.75 53.089844 218.433594 L 53.089844 170.710938 L 108.921875 170.710938 C 111.804688 170.710938 114.507812 171.832031 116.546875 173.867188 L 144.585938 201.910156 C 150.113281 207.433594 146.398438 216.703125 138.746094 216.703125 C 136.464844 216.703125 134.316406 215.8125 132.699219 214.199219 L 107.433594 188.925781 C 105.941406 187.433594 103.523438 187.433594 102.03125 188.925781 C 100.539062 190.417969 100.539062 192.835938 102.03125 194.328125 L 127.296875 219.601562 C 136.40625 228.683594 152.085938 224.046875 154.542969 211.371094 C 248.925781 187.613281 243.714844 188.847656 244.664062 188.847656 C 252.386719 188.847656 255 199.355469 248.09375 202.859375 C 246.210938 203.8125 245.457031 206.113281 246.410156 207.992188 C 247.363281 209.875 249.664062 210.628906 251.546875 209.671875 C 257.171875 206.820312 259.738281 201.320312 259.738281 196.308594 C 259.738281 185.945312 249.601562 179.566406 242.214844 181.425781 Z M 242.214844 181.425781 "/>
<path style=" stroke:none;fill-rule:nonzero;fill:rgb(100%,98.039216%,97.647059%);fill-opacity:1;" d="M 13.574219 224.042969 C 13.574219 231.195312 19.390625 237.011719 26.542969 237.011719 C 33.695312 237.011719 39.511719 231.195312 39.511719 224.042969 C 39.511719 218.855469 36.429688 214.175781 31.664062 212.125 C 29.726562 211.292969 27.480469 212.1875 26.648438 214.125 C 25.8125 216.0625 26.710938 218.308594 28.644531 219.144531 C 33.9375 221.421875 32.320312 229.375 26.542969 229.375 C 22.945312 229.375 20.371094 225.867188 21.460938 222.429688 C 23.109375 217.242188 13.574219 213.792969 13.574219 224.042969 Z M 13.574219 224.042969 "/>
<path style=" stroke:none;fill-rule:nonzero;fill:rgb(100%,98.039216%,97.647059%);fill-opacity:1;" d="M 254.878906 94.910156 L 236.464844 88.207031 C 236.585938 86.011719 236.585938 83.84375 236.464844 81.636719 L 254.878906 74.933594 C 258.917969 73.464844 260.996094 69.007812 259.527344 64.964844 L 253.273438 47.78125 C 251.808594 43.753906 247.335938 41.667969 243.304688 43.132812 L 224.890625 49.835938 C 223.582031 48.082031 222.167969 46.402344 220.667969 44.804688 L 230.464844 27.832031 C 232.609375 24.117188 231.332031 19.351562 227.617188 17.207031 L 211.78125 8.066406 C 209.984375 7.027344 207.886719 6.75 205.878906 7.289062 C 203.875 7.824219 202.195312 9.113281 201.160156 10.910156 L 191.363281 27.875 C 189.234375 27.375 187.070312 26.996094 184.890625 26.742188 L 181.488281 7.441406 C 180.742188 3.21875 176.699219 0.390625 172.476562 1.132812 L 154.46875 4.308594 C 150.246094 5.054688 147.414062 9.09375 148.160156 13.316406 L 151.5625 32.609375 C 149.609375 33.597656 147.707031 34.699219 145.871094 35.902344 L 130.859375 23.304688 C 127.5625 20.535156 122.664062 20.976562 119.90625 24.265625 L 108.148438 38.273438 C 105.386719 41.566406 105.816406 46.46875 109.109375 49.230469 L 124.113281 61.820312 C 123.246094 63.835938 122.496094 65.902344 121.863281 68 L 102.277344 68 C 97.988281 68 94.5 71.492188 94.5 75.777344 L 94.5 94.0625 C 94.5 98.351562 97.988281 101.84375 102.277344 101.84375 L 121.863281 101.84375 C 122.496094 103.941406 123.246094 106.007812 124.113281 108.023438 L 109.109375 120.613281 C 105.824219 123.367188 105.394531 128.285156 108.148438 131.570312 L 119.90625 145.578125 C 122.660156 148.863281 127.574219 149.292969 130.859375 146.539062 L 145.871094 133.941406 C 147.707031 135.144531 149.609375 136.246094 151.5625 137.234375 L 148.160156 156.523438 C 147.414062 160.757812 150.234375 164.789062 154.46875 165.535156 L 172.476562 168.707031 C 176.679688 169.453125 180.738281 166.640625 181.488281 162.402344 L 184.890625 143.101562 C 187.070312 142.847656 189.234375 142.46875 191.367188 141.96875 L 201.160156 158.929688 C 203.304688 162.648438 208.066406 163.925781 211.785156 161.78125 L 227.621094 152.636719 C 231.335938 150.492188 232.609375 145.726562 230.464844 142.011719 L 220.667969 125.039062 C 222.167969 123.441406 223.582031 121.761719 224.890625 120.007812 L 243.304688 126.710938 C 247.339844 128.175781 251.800781 126.109375 253.273438 122.0625 L 259.527344 104.878906 C 260.996094 100.839844 258.921875 96.378906 254.878906 94.910156 Z M 252.351562 102.265625 L 246.097656 119.449219 C 246.089844 119.46875 246.078125 119.503906 246.023438 119.527344 C 245.972656 119.550781 245.9375 119.539062 245.917969 119.53125 L 224.769531 111.832031 C 223.121094 111.234375 221.273438 111.835938 220.292969 113.292969 C 218.261719 116.320312 215.894531 119.140625 213.257812 121.671875 C 211.988281 122.886719 211.714844 124.8125 212.59375 126.335938 L 223.851562 145.828125 C 223.890625 145.898438 223.867188 145.980469 223.800781 146.019531 L 207.964844 155.164062 C 207.898438 155.203125 207.8125 155.179688 207.773438 155.113281 L 196.523438 135.628906 C 195.648438 134.109375 193.84375 133.382812 192.15625 133.871094 C 188.664062 134.878906 185.039062 135.515625 181.382812 135.757812 C 179.628906 135.871094 178.179688 137.171875 177.875 138.90625 L 173.964844 161.074219 C 173.953125 161.148438 173.878906 161.199219 173.804688 161.1875 C 173.59375 161.148438 155.644531 158.0625 155.683594 157.851562 L 159.589844 135.691406 C 159.894531 133.964844 158.980469 132.246094 157.375 131.539062 C 154.042969 130.0625 150.855469 128.21875 147.90625 126.058594 C 146.484375 125.019531 144.539062 125.085938 143.195312 126.214844 L 125.953125 140.683594 C 125.894531 140.734375 125.804688 140.726562 125.757812 140.667969 L 114 126.660156 C 113.953125 126.601562 113.960938 126.511719 114.019531 126.464844 L 131.253906 112 C 132.601562 110.871094 133.003906 108.964844 132.226562 107.386719 C 130.613281 104.113281 129.355469 100.65625 128.488281 97.109375 C 128.066406 95.402344 126.535156 94.203125 124.777344 94.203125 L 102.277344 94.203125 C 102.199219 94.203125 102.136719 94.140625 102.136719 94.0625 L 102.136719 75.777344 C 102.136719 75.703125 102.199219 75.636719 102.277344 75.636719 L 124.777344 75.636719 C 126.535156 75.636719 128.066406 74.4375 128.488281 72.730469 C 129.355469 69.1875 130.613281 65.730469 132.226562 62.453125 C 133.003906 60.875 132.601562 58.972656 131.253906 57.839844 L 114.019531 43.378906 C 114.003906 43.367188 113.972656 43.34375 113.96875 43.285156 C 113.964844 43.226562 113.988281 43.199219 114 43.183594 L 125.753906 29.175781 C 125.769531 29.160156 125.792969 29.132812 125.851562 29.125 C 125.90625 29.121094 125.9375 29.144531 125.953125 29.15625 L 143.195312 43.625 C 144.542969 44.757812 146.488281 44.824219 147.90625 43.78125 C 150.855469 41.621094 154.042969 39.78125 157.375 38.304688 C 158.980469 37.597656 159.894531 35.878906 159.589844 34.152344 L 155.683594 11.992188 C 155.667969 11.917969 155.71875 11.84375 155.796875 11.832031 L 173.804688 8.65625 C 173.824219 8.65625 173.859375 8.648438 173.90625 8.679688 C 173.957031 8.710938 173.960938 8.75 173.964844 8.769531 L 177.875 30.9375 C 178.179688 32.671875 179.628906 33.972656 181.382812 34.085938 C 185.042969 34.328125 188.667969 34.964844 192.15625 35.972656 C 193.84375 36.460938 195.648438 35.734375 196.527344 34.214844 L 207.773438 14.730469 C 207.78125 14.714844 207.800781 14.679688 207.859375 14.667969 C 207.914062 14.652344 207.945312 14.671875 207.964844 14.679688 L 223.800781 23.824219 C 223.867188 23.859375 223.890625 23.945312 223.851562 24.015625 L 212.59375 43.507812 C 211.714844 45.03125 211.988281 46.953125 213.257812 48.171875 C 215.894531 50.707031 218.261719 53.523438 220.292969 56.550781 C 221.273438 58.007812 223.121094 58.605469 224.769531 58.007812 L 245.917969 50.3125 C 245.988281 50.289062 246.070312 50.324219 246.097656 50.394531 L 252.351562 67.578125 C 252.355469 67.597656 252.371094 67.632812 252.34375 67.683594 C 252.320312 67.738281 252.285156 67.75 252.269531 67.757812 L 231.117188 75.453125 C 229.46875 76.054688 228.441406 77.703125 228.625 79.449219 C 229 82.960938 229.03125 86.601562 228.625 90.394531 C 228.441406 92.140625 229.46875 93.789062 231.117188 94.390625 L 252.269531 102.085938 C 252.285156 102.09375 252.320312 102.105469 252.34375 102.160156 C 252.371094 102.210938 252.355469 102.246094 252.351562 102.265625 Z M 252.351562 102.265625 "/>
<path style=" stroke:none;fill-rule:nonzero;fill:rgb(100%,98.039216%,97.647059%);fill-opacity:1;" d="M 207.765625 60.066406 L 164.828125 103.007812 L 146.730469 84.910156 C 145.238281 83.421875 142.820312 83.421875 141.328125 84.910156 C 139.835938 86.402344 139.835938 88.820312 141.328125 90.3125 L 159.851562 108.835938 C 162.601562 111.582031 167.050781 111.582031 169.800781 108.835938 L 213.167969 65.46875 C 214.660156 63.976562 214.660156 61.558594 213.167969 60.066406 C 211.675781 58.574219 209.257812 58.574219 207.765625 60.066406 Z M 207.765625 60.066406 "/>
</g>
</svg>
