<?xml version="1.0" encoding="UTF-8"?>
<svg xmlns="http://www.w3.org/2000/svg" xmlns:xlink="http://www.w3.org/1999/xlink" width="260pt" height="260pt" viewBox="0 0 260 260" version="1.1">
<g id="surface1">
<path style=" stroke:none;fill-rule:nonzero;fill:rgb(100%,100%,100%);fill-opacity:1;" d="M 252.128906 201.109375 C 256.46875 201.109375 260 197.578125 260 193.238281 L 260 184.539062 C 260 180.199219 256.46875 176.667969 252.128906 176.667969 L 173.066406 176.667969 L 173.066406 150.632812 L 176.414062 150.632812 C 180.753906 150.632812 184.285156 147.101562 184.285156 142.761719 L 184.285156 134.0625 C 184.285156 129.722656 180.753906 126.191406 176.414062 126.191406 L 167.445312 126.191406 C 167.449219 126.105469 167.460938 126.023438 167.460938 125.9375 L 167.460938 117.238281 C 167.460938 112.898438 163.929688 109.367188 159.589844 109.367188 L 142.222656 109.367188 L 142.222656 98.101562 C 155.738281 93.417969 165.777344 81.210938 167.265625 66.507812 L 172.0625 66.507812 C 183.441406 66.507812 192.699219 57.25 192.699219 45.871094 L 192.699219 24.839844 C 192.699219 20.421875 189.101562 16.824219 184.683594 16.824219 L 171.652344 16.824219 C 171.65625 16.742188 171.664062 16.65625 171.664062 16.570312 L 171.664062 7.871094 C 171.664062 3.53125 168.132812 0 163.792969 0 L 96.203125 0 C 91.863281 0 88.332031 3.53125 88.332031 7.871094 L 88.332031 16.570312 C 88.332031 16.65625 88.34375 16.742188 88.347656 16.824219 L 75.316406 16.824219 C 70.898438 16.824219 67.300781 20.421875 67.300781 24.839844 L 67.300781 45.871094 C 67.300781 57.25 76.558594 66.507812 87.933594 66.507812 L 92.730469 66.507812 C 94.222656 81.210938 104.257812 93.417969 117.777344 98.097656 L 117.777344 109.367188 L 100.410156 109.367188 C 96.070312 109.367188 92.539062 112.894531 92.539062 117.238281 L 92.539062 125.9375 C 92.539062 126.023438 92.550781 126.105469 92.550781 126.191406 L 83.585938 126.191406 C 79.246094 126.191406 75.714844 129.722656 75.714844 134.0625 L 75.714844 142.761719 C 75.714844 147.101562 79.246094 150.632812 83.585938 150.632812 L 86.933594 150.632812 L 86.933594 159.84375 L 7.871094 159.84375 C 3.53125 159.84375 0 163.371094 0 167.714844 L 0 176.414062 C 0 180.753906 3.53125 184.285156 7.871094 184.285156 L 8.414062 184.285156 L 8.414062 235.558594 L 7.871094 235.558594 C 3.53125 235.558594 0 239.089844 0 243.429688 L 0 252.128906 C 0 256.46875 3.53125 260 7.871094 260 L 38.253906 260 C 40.359375 260 42.0625 258.292969 42.0625 256.191406 C 42.0625 254.089844 40.359375 252.382812 38.253906 252.382812 L 7.871094 252.382812 C 7.730469 252.382812 7.617188 252.269531 7.617188 252.128906 L 7.617188 243.429688 C 7.617188 243.289062 7.730469 243.175781 7.871094 243.175781 L 252.128906 243.175781 C 252.269531 243.175781 252.382812 243.289062 252.382812 243.429688 L 252.382812 252.128906 C 252.382812 252.269531 252.269531 252.382812 252.128906 252.382812 L 53.488281 252.382812 C 51.386719 252.382812 49.679688 254.089844 49.679688 256.191406 C 49.679688 258.292969 51.386719 260 53.488281 260 L 252.128906 260 C 256.46875 260 260 256.46875 260 252.128906 L 260 243.429688 C 260 239.089844 256.46875 235.558594 252.128906 235.558594 L 251.585938 235.558594 L 251.585938 201.109375 Z M 185.082031 24.839844 L 185.082031 45.871094 C 185.082031 53.050781 179.242188 58.890625 172.0625 58.890625 L 167.460938 58.890625 L 167.460938 24.441406 L 184.683594 24.441406 C 184.902344 24.441406 185.082031 24.621094 185.082031 24.839844 Z M 95.953125 16.570312 L 95.953125 7.871094 C 95.953125 7.730469 96.066406 7.617188 96.203125 7.617188 L 163.792969 7.617188 C 163.933594 7.617188 164.046875 7.730469 164.046875 7.871094 L 164.046875 16.570312 C 164.046875 16.710938 163.933594 16.824219 163.792969 16.824219 L 96.203125 16.824219 C 96.066406 16.824219 95.949219 16.710938 95.949219 16.570312 Z M 74.917969 45.871094 L 74.917969 24.839844 C 74.917969 24.621094 75.097656 24.441406 75.316406 24.441406 L 92.539062 24.441406 L 92.539062 58.890625 L 87.9375 58.890625 C 80.757812 58.890625 74.917969 53.050781 74.917969 45.871094 Z M 100.15625 62.699219 L 100.15625 24.441406 L 159.84375 24.441406 L 159.84375 62.699219 C 159.84375 79.152344 146.457031 92.539062 130 92.539062 C 113.542969 92.539062 100.15625 79.152344 100.15625 62.699219 Z M 125.394531 99.863281 C 126.90625 100.050781 128.441406 100.15625 130 100.15625 C 131.558594 100.15625 133.09375 100.050781 134.605469 99.863281 L 134.605469 109.367188 L 125.394531 109.367188 Z M 100.15625 125.9375 L 100.15625 117.238281 C 100.15625 117.097656 100.269531 116.984375 100.410156 116.984375 L 159.589844 116.984375 C 159.726562 116.984375 159.84375 117.097656 159.84375 117.238281 L 159.84375 125.9375 C 159.84375 126.078125 159.726562 126.191406 159.589844 126.191406 L 100.410156 126.191406 C 100.269531 126.191406 100.15625 126.078125 100.15625 125.9375 Z M 83.332031 142.761719 L 83.332031 134.0625 C 83.332031 133.921875 83.445312 133.808594 83.585938 133.808594 L 176.414062 133.808594 C 176.554688 133.808594 176.667969 133.921875 176.667969 134.0625 L 176.667969 142.761719 C 176.667969 142.902344 176.554688 143.015625 176.414062 143.015625 L 83.585938 143.015625 C 83.445312 143.015625 83.332031 142.902344 83.332031 142.761719 Z M 7.617188 176.414062 L 7.617188 167.714844 C 7.617188 167.574219 7.730469 167.460938 7.871094 167.460938 L 86.933594 167.460938 L 86.933594 176.667969 L 7.871094 176.667969 C 7.730469 176.667969 7.617188 176.554688 7.617188 176.414062 Z M 243.96875 235.558594 L 16.03125 235.558594 L 16.03125 184.285156 L 90.742188 184.285156 C 92.84375 184.285156 94.550781 182.578125 94.550781 180.476562 L 94.550781 150.632812 L 165.449219 150.632812 L 165.449219 197.300781 C 165.449219 199.40625 167.15625 201.109375 169.257812 201.109375 L 207.261719 201.109375 C 209.363281 201.109375 211.070312 199.40625 211.070312 197.300781 C 211.070312 195.199219 209.363281 193.492188 207.261719 193.492188 L 173.066406 193.492188 L 173.066406 184.285156 L 252.128906 184.285156 C 252.269531 184.285156 252.382812 184.398438 252.382812 184.539062 L 252.382812 193.238281 C 252.382812 193.378906 252.269531 193.492188 252.128906 193.492188 L 222.496094 193.492188 C 220.390625 193.492188 218.6875 195.199219 218.6875 197.300781 C 218.6875 199.40625 220.390625 201.109375 222.496094 201.109375 L 243.96875 201.109375 Z M 243.96875 235.558594 "/>
<path style=" stroke:none;fill-rule:nonzero;fill:rgb(100%,100%,100%);fill-opacity:1;" d="M 130 159.84375 C 127.898438 159.84375 126.191406 161.546875 126.191406 163.652344 L 126.191406 172.0625 C 126.191406 174.167969 127.898438 175.871094 130 175.871094 C 132.105469 175.871094 133.808594 174.167969 133.808594 172.0625 L 133.808594 163.652344 C 133.808594 161.546875 132.105469 159.84375 130 159.84375 Z M 130 159.84375 "/>
<path style=" stroke:none;fill-rule:nonzero;fill:rgb(100%,100%,100%);fill-opacity:1;" d="M 45.871094 193.492188 C 43.769531 193.492188 42.0625 195.199219 42.0625 197.300781 L 42.0625 205.714844 C 42.0625 207.816406 43.769531 209.523438 45.871094 209.523438 C 47.976562 209.523438 49.679688 207.816406 49.679688 205.714844 L 49.679688 197.300781 C 49.679688 195.199219 47.976562 193.492188 45.871094 193.492188 Z M 45.871094 193.492188 "/>
<path style=" stroke:none;fill-rule:nonzero;fill:rgb(100%,100%,100%);fill-opacity:1;" d="M 62.699219 193.492188 C 60.59375 193.492188 58.890625 195.199219 58.890625 197.300781 L 58.890625 205.714844 C 58.890625 207.816406 60.59375 209.523438 62.699219 209.523438 C 64.800781 209.523438 66.507812 207.816406 66.507812 205.714844 L 66.507812 197.300781 C 66.507812 195.199219 64.800781 193.492188 62.699219 193.492188 Z M 62.699219 193.492188 "/>
<path style=" stroke:none;fill-rule:nonzero;fill:rgb(100%,100%,100%);fill-opacity:1;" d="M 188.890625 210.320312 C 186.785156 210.320312 185.082031 212.023438 185.082031 214.128906 L 185.082031 222.539062 C 185.082031 224.644531 186.785156 226.347656 188.890625 226.347656 C 190.992188 226.347656 192.699219 224.644531 192.699219 222.539062 L 192.699219 214.128906 C 192.699219 212.023438 190.992188 210.320312 188.890625 210.320312 Z M 188.890625 210.320312 "/>
<path style=" stroke:none;fill-rule:nonzero;fill:rgb(100%,100%,100%);fill-opacity:1;" d="M 205.714844 210.320312 C 203.609375 210.320312 201.90625 212.023438 201.90625 214.128906 L 201.90625 222.539062 C 201.90625 224.644531 203.609375 226.347656 205.714844 226.347656 C 207.820312 226.347656 209.523438 224.644531 209.523438 222.539062 L 209.523438 214.128906 C 209.523438 212.023438 207.816406 210.320312 205.714844 210.320312 Z M 205.714844 210.320312 "/>
<path style=" stroke:none;fill-rule:nonzero;fill:rgb(100%,100%,100%);fill-opacity:1;" d="M 218.730469 214.128906 L 218.730469 222.539062 C 218.730469 224.644531 220.4375 226.347656 222.539062 226.347656 C 224.644531 226.347656 226.347656 224.644531 226.347656 222.539062 L 226.347656 214.128906 C 226.347656 212.023438 224.644531 210.320312 222.539062 210.320312 C 220.4375 210.320312 218.730469 212.023438 218.730469 214.128906 Z M 218.730469 214.128906 "/>
</g>
</svg>
