<?xml version="1.0" encoding="UTF-8"?>
<svg xmlns="http://www.w3.org/2000/svg" xmlns:xlink="http://www.w3.org/1999/xlink" width="260pt" height="260pt" viewBox="0 0 260 260" version="1.1">
<g id="surface1">
<path style=" stroke:none;fill-rule:nonzero;fill:rgb(100%,100%,100%);fill-opacity:1;" d="M 106.824219 230.488281 L 106.058594 234.21875 L 106.796875 230.484375 C 104.730469 230.078125 102.730469 231.421875 102.320312 233.484375 C 101.914062 235.550781 103.257812 237.550781 105.324219 237.957031 C 105.328125 237.960938 105.386719 237.96875 105.394531 237.972656 C 105.632812 238.015625 105.875 238.039062 106.113281 238.039062 C 107.902344 238.039062 109.5 236.769531 109.847656 234.945312 C 110.246094 232.878906 108.890625 230.882812 106.824219 230.488281 Z M 106.824219 230.488281 "/>
<path style=" stroke:none;fill-rule:nonzero;fill:rgb(100%,100%,100%);fill-opacity:1;" d="M 135.941406 231.714844 L 136.320312 235.5 L 135.929688 231.714844 C 133.839844 231.929688 132.316406 233.800781 132.53125 235.894531 C 132.734375 237.851562 134.386719 239.3125 136.316406 239.3125 C 136.445312 239.3125 136.578125 239.304688 136.710938 239.292969 L 136.816406 239.28125 C 138.898438 239.035156 140.375 237.15625 140.144531 235.074219 C 139.910156 232.996094 138.027344 231.496094 135.941406 231.714844 Z M 135.941406 231.714844 "/>
<path style=" stroke:none;fill-rule:nonzero;fill:rgb(100%,100%,100%);fill-opacity:1;" d="M 121.363281 232.191406 C 121.363281 232.191406 121.308594 232.191406 121.308594 232.191406 C 119.207031 232.097656 117.457031 233.726562 117.359375 235.828125 C 117.265625 237.929688 118.917969 239.707031 121.019531 239.800781 C 121.078125 239.804688 121.136719 239.804688 121.195312 239.804688 C 123.21875 239.804688 124.902344 238.214844 124.996094 236.171875 C 125.089844 234.070312 123.464844 232.289062 121.363281 232.191406 Z M 121.363281 232.191406 "/>
<path style=" stroke:none;fill-rule:nonzero;fill:rgb(100%,100%,100%);fill-opacity:1;" d="M 92.753906 226.617188 L 92.707031 226.601562 C 90.726562 225.890625 88.570312 226.925781 87.859375 228.90625 C 87.148438 230.886719 88.199219 233.074219 90.179688 233.789062 C 90.605469 233.941406 91.039062 234.011719 91.464844 234.011719 C 93.027344 234.011719 94.492188 233.046875 95.050781 231.492188 C 95.761719 229.511719 94.734375 227.328125 92.753906 226.617188 Z M 92.753906 226.617188 "/>
<path style=" stroke:none;fill-rule:nonzero;fill:rgb(100%,100%,100%);fill-opacity:1;" d="M 150.316406 229.046875 L 151.253906 232.738281 L 150.304688 229.050781 C 148.265625 229.574219 147.042969 231.652344 147.566406 233.6875 C 148.007812 235.40625 149.554688 236.550781 151.25 236.550781 C 151.566406 236.550781 151.886719 236.507812 152.203125 236.425781 C 152.21875 236.421875 152.289062 236.40625 152.304688 236.402344 C 154.328125 235.847656 155.507812 233.773438 154.96875 231.746094 C 154.429688 229.722656 152.34375 228.519531 150.316406 229.046875 Z M 150.316406 229.046875 "/>
<path style=" stroke:none;fill-rule:nonzero;fill:rgb(100%,100%,100%);fill-opacity:1;" d="M 164.085938 224.246094 L 165.59375 227.738281 L 164.074219 224.25 C 162.144531 225.089844 161.261719 227.332031 162.101562 229.261719 C 162.726562 230.695312 164.125 231.550781 165.597656 231.550781 C 166.101562 231.550781 166.621094 231.449219 167.113281 231.234375 C 167.128906 231.226562 167.191406 231.199219 167.207031 231.191406 C 169.117188 230.328125 169.960938 228.089844 169.105469 226.175781 C 168.253906 224.261719 166.003906 223.402344 164.085938 224.246094 Z M 164.085938 224.246094 "/>
<path style=" stroke:none;fill-rule:nonzero;fill:rgb(100%,100%,100%);fill-opacity:1;" d="M 78.207031 50.628906 C 78.816406 50.628906 79.4375 50.480469 80.011719 50.175781 C 81.867188 49.1875 82.570312 46.878906 81.578125 45.023438 C 80.589844 43.167969 78.285156 42.464844 76.425781 43.457031 L 76.382812 43.480469 C 74.527344 44.46875 73.847656 46.765625 74.835938 48.621094 C 75.519531 49.902344 76.84375 50.628906 78.207031 50.628906 Z M 78.207031 50.628906 "/>
<path style=" stroke:none;fill-rule:nonzero;fill:rgb(100%,100%,100%);fill-opacity:1;" d="M 34.152344 93.167969 C 34.71875 93.464844 35.324219 93.605469 35.917969 93.605469 C 37.289062 93.605469 38.617188 92.863281 39.296875 91.5625 L 39.363281 91.429688 C 40.292969 89.542969 39.515625 87.257812 37.625 86.332031 C 35.75 85.40625 33.484375 86.167969 32.546875 88.03125 C 31.574219 89.894531 32.292969 92.191406 34.152344 93.167969 Z M 34.152344 93.167969 "/>
<path style=" stroke:none;fill-rule:nonzero;fill:rgb(100%,100%,100%);fill-opacity:1;" d="M 28.789062 107.496094 C 29.195312 107.632812 29.605469 107.699219 30.011719 107.699219 C 31.597656 107.699219 33.082031 106.695312 33.617188 105.109375 L 33.667969 104.957031 C 34.289062 102.949219 33.160156 100.816406 31.148438 100.199219 C 29.152344 99.585938 27.035156 100.691406 26.398438 102.675781 C 25.730469 104.664062 26.800781 106.824219 28.789062 107.496094 Z M 28.789062 107.496094 "/>
<path style=" stroke:none;fill-rule:nonzero;fill:rgb(100%,100%,100%);fill-opacity:1;" d="M 41.667969 79.84375 C 42.34375 80.335938 43.125 80.574219 43.902344 80.574219 C 45.082031 80.574219 46.242188 80.027344 46.988281 79.003906 L 47.035156 78.9375 C 48.257812 77.226562 47.859375 74.855469 46.152344 73.632812 C 44.445312 72.410156 42.066406 72.800781 40.839844 74.507812 L 43.90625 76.765625 L 40.828125 74.523438 C 39.589844 76.226562 39.964844 78.609375 41.667969 79.84375 Z M 41.667969 79.84375 "/>
<path style=" stroke:none;fill-rule:nonzero;fill:rgb(100%,100%,100%);fill-opacity:1;" d="M 65.277344 58.855469 C 66.078125 58.855469 66.882812 58.601562 67.570312 58.078125 C 69.269531 56.835938 69.636719 54.457031 68.394531 52.757812 C 67.148438 51.058594 64.769531 50.691406 63.070312 51.933594 L 62.976562 52.003906 C 61.300781 53.273438 60.96875 55.667969 62.242188 57.34375 C 62.992188 58.332031 64.128906 58.855469 65.277344 58.855469 Z M 65.277344 58.855469 "/>
<path style=" stroke:none;fill-rule:nonzero;fill:rgb(100%,100%,100%);fill-opacity:1;" d="M 25.390625 165.253906 C 25.894531 166.890625 27.398438 167.941406 29.023438 167.941406 C 29.394531 167.941406 29.773438 167.886719 30.148438 167.769531 C 32.148438 167.15625 33.277344 165.039062 32.675781 163.035156 C 32.101562 161.035156 30.03125 159.863281 28.011719 160.410156 C 25.984375 160.964844 24.789062 163.058594 25.339844 165.089844 C 25.351562 165.128906 25.378906 165.214844 25.390625 165.253906 Z M 25.390625 165.253906 "/>
<path style=" stroke:none;fill-rule:nonzero;fill:rgb(100%,100%,100%);fill-opacity:1;" d="M 53.773438 68.890625 C 54.761719 68.890625 55.753906 68.507812 56.5 67.746094 C 57.984375 66.257812 57.984375 63.847656 56.5 62.363281 C 55.011719 60.875 52.601562 60.875 51.113281 62.363281 L 51.050781 62.425781 C 49.578125 63.925781 49.605469 66.335938 51.109375 67.808594 C 51.847656 68.53125 52.808594 68.890625 53.773438 68.890625 Z M 53.773438 68.890625 "/>
<path style=" stroke:none;fill-rule:nonzero;fill:rgb(100%,100%,100%);fill-opacity:1;" d="M 29.601562 148.648438 C 29.332031 146.582031 27.441406 145.113281 25.371094 145.359375 C 23.285156 145.609375 21.792969 147.503906 22.039062 149.59375 L 22.0625 149.746094 C 22.339844 151.636719 23.964844 152.996094 25.824219 152.996094 C 26.003906 152.996094 26.191406 152.980469 26.378906 152.953125 C 28.453125 152.652344 29.890625 150.722656 29.601562 148.648438 Z M 29.601562 148.648438 "/>
<path style=" stroke:none;fill-rule:nonzero;fill:rgb(100%,100%,100%);fill-opacity:1;" d="M 24.816406 137.742188 C 24.855469 137.742188 24.894531 137.742188 24.929688 137.742188 C 26.980469 137.742188 28.675781 136.113281 28.734375 134.046875 L 28.738281 133.882812 C 28.738281 131.78125 27.03125 130.074219 24.929688 130.074219 C 22.839844 130.074219 21.148438 131.753906 21.121094 133.835938 C 21.066406 135.933594 22.71875 137.679688 24.816406 137.742188 Z M 24.816406 137.742188 "/>
<path style=" stroke:none;fill-rule:nonzero;fill:rgb(100%,100%,100%);fill-opacity:1;" d="M 25.652344 122.46875 C 25.878906 122.507812 26.101562 122.527344 26.328125 122.527344 C 28.136719 122.527344 29.742188 121.230469 30.070312 119.390625 C 30.082031 119.332031 30.089844 119.277344 30.097656 119.222656 C 30.40625 117.140625 28.96875 115.207031 26.882812 114.902344 C 24.828125 114.59375 22.902344 116.007812 22.570312 118.058594 C 22.207031 120.128906 23.585938 122.097656 25.652344 122.46875 Z M 25.652344 122.46875 "/>
<path style=" stroke:none;fill-rule:nonzero;fill:rgb(100%,100%,100%);fill-opacity:1;" d="M 205.308594 81.046875 C 206.046875 82.117188 207.234375 82.691406 208.441406 82.691406 C 209.1875 82.691406 209.941406 82.472656 210.597656 82.019531 C 212.332031 80.828125 212.769531 78.457031 211.578125 76.722656 L 208.414062 78.839844 L 211.566406 76.703125 C 210.386719 74.960938 208.015625 74.507812 206.277344 75.6875 C 204.535156 76.867188 204.082031 79.238281 205.261719 80.976562 Z M 205.308594 81.046875 "/>
<path style=" stroke:none;fill-rule:nonzero;fill:rgb(100%,100%,100%);fill-opacity:1;" d="M 224.757812 119.371094 C 222.667969 119.605469 221.164062 121.492188 221.398438 123.582031 L 221.417969 123.746094 C 221.691406 125.644531 223.320312 127.015625 225.1875 127.015625 C 225.363281 127.015625 225.546875 127.003906 225.730469 126.980469 C 227.796875 126.683594 229.234375 124.78125 228.96875 122.71875 C 228.726562 120.632812 226.835938 119.136719 224.757812 119.371094 Z M 224.757812 119.371094 "/>
<path style=" stroke:none;fill-rule:nonzero;fill:rgb(100%,100%,100%);fill-opacity:1;" d="M 218.332031 108.625 L 218.347656 108.675781 C 218.835938 110.335938 220.351562 111.410156 222 111.410156 C 222.355469 111.410156 222.714844 111.359375 223.074219 111.253906 C 225.09375 110.660156 226.246094 108.542969 225.65625 106.523438 L 225.640625 106.472656 C 225.046875 104.453125 222.929688 103.300781 220.910156 103.894531 C 218.894531 104.488281 217.738281 106.605469 218.332031 108.625 Z M 218.332031 108.625 "/>
<path style=" stroke:none;fill-rule:nonzero;fill:rgb(100%,100%,100%);fill-opacity:1;" d="M 212.953125 94.382812 C 213.617188 95.734375 214.976562 96.523438 216.386719 96.523438 C 216.949219 96.523438 217.519531 96.398438 218.058594 96.132812 C 219.945312 95.203125 220.726562 92.933594 219.796875 91.046875 L 216.34375 92.652344 L 219.792969 91.039062 C 218.902344 89.132812 216.632812 88.3125 214.730469 89.207031 C 212.824219 90.097656 212.003906 92.367188 212.894531 94.269531 Z M 212.953125 94.382812 "/>
<path style=" stroke:none;fill-rule:nonzero;fill:rgb(100%,100%,100%);fill-opacity:1;" d="M 195.714844 69.152344 C 196.460938 69.914062 197.449219 70.292969 198.433594 70.292969 C 199.398438 70.292969 200.359375 69.933594 201.101562 69.207031 C 202.59375 67.746094 202.625 65.359375 201.1875 63.855469 C 199.761719 62.316406 197.359375 62.226562 195.816406 63.648438 C 194.269531 65.074219 194.175781 67.484375 195.601562 69.03125 Z M 195.714844 69.152344 "/>
<path style=" stroke:none;fill-rule:nonzero;fill:rgb(100%,100%,100%);fill-opacity:1;" d="M 225.996094 135.273438 C 223.902344 135.222656 222.152344 136.863281 222.078125 138.953125 C 221.984375 141.039062 223.582031 142.8125 225.671875 142.929688 C 225.742188 142.933594 225.8125 142.9375 225.886719 142.9375 C 227.890625 142.9375 229.574219 141.367188 229.6875 139.339844 L 229.691406 139.183594 C 229.75 137.082031 228.097656 135.335938 225.996094 135.273438 Z M 225.996094 135.273438 "/>
<path style=" stroke:none;fill-rule:nonzero;fill:rgb(100%,100%,100%);fill-opacity:1;" d="M 171.359375 50.449219 L 171.453125 50.5 C 172.019531 50.800781 172.628906 50.945312 173.226562 50.945312 C 174.582031 50.945312 175.894531 50.214844 176.582031 48.933594 C 177.574219 47.085938 176.875 44.777344 175.035156 43.777344 L 173.191406 47.113281 L 175.023438 43.769531 C 173.175781 42.757812 170.863281 43.4375 169.851562 45.28125 C 168.839844 47.125 169.515625 49.441406 171.359375 50.449219 Z M 171.359375 50.449219 "/>
<path style=" stroke:none;fill-rule:nonzero;fill:rgb(100%,100%,100%);fill-opacity:1;" d="M 184.242188 58.804688 L 184.300781 58.847656 C 184.988281 59.371094 185.796875 59.621094 186.601562 59.621094 C 187.75 59.621094 188.886719 59.101562 189.636719 58.113281 C 190.910156 56.4375 190.582031 54.050781 188.90625 52.777344 L 188.878906 52.761719 C 187.210938 51.480469 184.820312 51.792969 183.539062 53.460938 C 182.257812 55.128906 182.574219 57.523438 184.242188 58.804688 Z M 184.242188 58.804688 "/>
<path style=" stroke:none;fill-rule:nonzero;fill:rgb(100%,100%,100%);fill-opacity:1;" d="M 257.648438 192.933594 L 239.769531 175.023438 C 238.25 173.5 236.226562 172.660156 234.074219 172.660156 C 231.925781 172.660156 229.902344 173.5 228.382812 175.023438 L 227.96875 175.4375 L 226.792969 174.261719 C 225.34375 172.808594 224.21875 171.117188 223.457031 169.273438 C 223.390625 169.03125 223.300781 168.792969 223.1875 168.566406 C 222.605469 166.929688 222.300781 165.1875 222.300781 163.394531 L 222.300781 158.328125 C 222.648438 158.511719 223.027344 158.644531 223.433594 158.714844 C 223.652344 158.75 223.867188 158.769531 224.082031 158.769531 C 225.890625 158.769531 227.488281 157.480469 227.824219 155.644531 C 228.230469 153.585938 226.894531 151.585938 224.832031 151.171875 C 223.925781 150.992188 223.03125 151.148438 222.277344 151.558594 C 222.042969 146.148438 219.832031 141.09375 215.984375 137.234375 L 198.636719 119.863281 C 194.746094 115.964844 189.570312 113.816406 184.066406 113.816406 C 179.804688 113.816406 175.746094 115.109375 172.324219 117.5 L 170.480469 115.648438 L 170.480469 72.085938 C 170.480469 66.835938 168.574219 61.769531 165.117188 57.824219 C 162.65625 55.019531 161.300781 51.417969 161.300781 47.679688 L 161.300781 44.488281 L 161.5625 44.488281 C 166 44.488281 169.613281 40.878906 169.613281 36.4375 L 169.613281 11.101562 C 169.613281 6.660156 166 3.046875 161.5625 3.046875 L 90.417969 3.046875 C 85.980469 3.046875 82.367188 6.660156 82.367188 11.101562 L 82.367188 36.4375 C 82.367188 40.878906 85.980469 44.488281 90.417969 44.488281 L 91.003906 44.488281 L 91.003906 46.160156 C 91.003906 50.265625 89.410156 54.125 86.511719 57.027344 L 78.832031 64.71875 C 74.757812 68.804688 72.515625 74.226562 72.515625 80 L 72.515625 104.570312 C 72.515625 107.910156 73.316406 111.0625 74.726562 113.855469 C 69.675781 114.148438 64.96875 116.25 61.363281 119.863281 L 44.015625 137.234375 C 39.941406 141.320312 37.699219 146.746094 37.699219 152.515625 L 37.699219 163.394531 C 37.699219 167.5 36.105469 171.359375 33.207031 174.261719 L 32.046875 175.425781 C 32.039062 175.429688 32.035156 175.433594 32.03125 175.4375 L 31.621094 175.023438 C 30.097656 173.5 28.078125 172.660156 25.925781 172.660156 C 23.773438 172.660156 21.75 173.5 20.230469 175.023438 L 2.351562 192.933594 C -0.785156 196.074219 -0.785156 201.183594 2.351562 204.324219 L 8.472656 210.453125 C 9.960938 211.945312 12.371094 211.945312 13.859375 210.460938 C 15.347656 208.972656 15.351562 206.5625 13.863281 205.074219 L 7.742188 198.9375 C 7.570312 198.765625 7.570312 198.488281 7.742188 198.316406 L 25.621094 180.402344 C 25.789062 180.238281 26.0625 180.234375 26.226562 180.402344 L 29.335938 183.519531 L 29.339844 183.519531 L 71.78125 226.035156 L 76.535156 230.800781 C 76.710938 230.972656 76.710938 231.253906 76.535156 231.425781 L 58.65625 249.335938 C 58.488281 249.503906 58.21875 249.503906 58.050781 249.335938 L 24.648438 215.875 C 23.160156 214.382812 20.75 214.382812 19.261719 215.867188 C 17.769531 217.355469 17.769531 219.765625 19.253906 221.253906 L 52.660156 254.71875 C 54.179688 256.242188 56.203125 257.078125 58.355469 257.078125 C 60.507812 257.078125 62.527344 256.242188 64.050781 254.71875 L 81.929688 236.808594 C 85.0625 233.667969 85.0625 228.558594 81.929688 225.417969 L 81.734375 225.222656 L 83.988281 222.964844 C 86.625 220.324219 90.121094 218.738281 93.84375 218.5 C 99.078125 218.160156 104.003906 215.925781 107.710938 212.210938 L 124.132812 195.75 C 128.871094 194.507812 132.558594 190.648438 133.558594 185.816406 C 135.25 186.617188 137.136719 187.070312 139.125 187.070312 C 146.289062 187.070312 152.117188 181.238281 152.117188 174.066406 L 152.117188 165.019531 C 153.753906 165.769531 155.574219 166.191406 157.492188 166.191406 C 164.652344 166.191406 170.480469 160.355469 170.480469 153.183594 L 170.480469 126.449219 L 182.195312 138.21875 C 182.9375 138.96875 183.917969 139.339844 184.894531 139.339844 C 185.867188 139.339844 186.839844 138.972656 187.582031 138.230469 C 189.074219 136.75 189.078125 134.339844 187.59375 132.847656 L 177.828125 123.03125 C 179.71875 121.988281 181.847656 121.433594 184.066406 121.433594 C 187.535156 121.433594 190.792969 122.789062 193.246094 125.246094 L 210.589844 142.617188 C 213.230469 145.261719 214.683594 148.777344 214.683594 152.515625 L 214.683594 163.394531 C 214.683594 169.535156 217.070312 175.304688 221.402344 179.644531 L 222.585938 180.828125 L 217.058594 186.363281 L 183.648438 219.832031 L 181.785156 217.964844 C 181.765625 217.949219 181.746094 217.929688 181.726562 217.910156 L 181.398438 217.582031 C 177.457031 213.632812 172.21875 211.257812 166.652344 210.898438 C 163.265625 210.675781 160.078125 209.234375 157.667969 206.820312 L 145.15625 194.375 C 143.664062 192.890625 141.25 192.894531 139.765625 194.386719 C 138.285156 195.878906 138.292969 198.289062 139.78125 199.773438 L 152.289062 212.210938 C 155.996094 215.925781 160.921875 218.160156 166.160156 218.5 C 169.875 218.738281 173.375 220.324219 176.011719 222.964844 L 176.195312 223.148438 C 176.292969 223.261719 176.398438 223.367188 176.511719 223.464844 L 178.265625 225.222656 L 178.070312 225.417969 C 174.9375 228.558594 174.9375 233.667969 178.070312 236.808594 L 195.949219 254.71875 C 197.472656 256.242188 199.492188 257.078125 201.644531 257.078125 C 203.796875 257.078125 205.820312 256.242188 207.339844 254.71875 L 257.648438 204.320312 C 260.78125 201.179688 260.78125 196.074219 257.648438 192.933594 Z M 224.851562 155.0625 L 224.78125 155.050781 L 224.085938 154.910156 Z M 102.316406 206.828125 C 99.917969 209.234375 96.734375 210.675781 93.351562 210.898438 C 87.78125 211.257812 82.542969 213.632812 78.601562 217.582031 L 76.351562 219.832031 L 74.328125 217.804688 C 74.304688 217.78125 74.277344 217.753906 74.25 217.726562 L 37.414062 180.828125 L 38.597656 179.644531 C 42.929688 175.304688 45.316406 169.535156 45.316406 163.394531 L 45.316406 152.515625 C 45.316406 148.777344 46.769531 145.261719 49.410156 142.617188 L 66.753906 125.246094 C 69.207031 122.789062 72.464844 121.433594 75.933594 121.433594 C 78.15625 121.433594 80.296875 121.992188 82.191406 123.042969 L 72.410156 132.84375 C 70.921875 134.332031 70.925781 136.742188 72.414062 138.226562 C 73.15625 138.96875 74.128906 139.339844 75.105469 139.339844 C 76.082031 139.339844 77.054688 138.96875 77.800781 138.222656 L 89.484375 126.515625 L 89.484375 174.066406 C 89.484375 181.238281 95.3125 187.070312 102.476562 187.070312 C 104.496094 187.070312 106.410156 186.605469 108.113281 185.78125 C 108.886719 189.558594 111.300781 192.738281 114.570312 194.550781 Z M 162.863281 153.183594 C 162.863281 156.15625 160.453125 158.574219 157.492188 158.574219 C 154.527344 158.574219 152.117188 156.15625 152.117188 153.183594 L 152.117188 110.703125 C 152.117188 108.597656 150.414062 106.894531 148.308594 106.894531 C 146.203125 106.894531 144.5 108.597656 144.5 110.703125 L 144.5 174.066406 C 144.5 177.039062 142.089844 179.453125 139.125 179.453125 C 136.464844 179.453125 134.257812 177.507812 133.832031 174.957031 L 133.832031 110.65625 C 133.832031 108.554688 132.128906 106.847656 130.023438 106.847656 C 129.347656 106.847656 128.710938 107.027344 128.160156 107.335938 C 126.953125 107.976562 126.136719 109.242188 126.136719 110.703125 L 126.136719 174.066406 C 126.136719 174.546875 126.164062 175.023438 126.214844 175.492188 L 126.214844 183.167969 C 126.214844 186.140625 123.804688 188.558594 120.839844 188.558594 C 117.878906 188.558594 115.46875 186.140625 115.46875 183.167969 L 115.46875 110.613281 C 115.46875 108.507812 113.765625 106.804688 111.660156 106.804688 C 109.554688 106.804688 107.851562 108.507812 107.851562 110.613281 L 107.851562 174.066406 C 107.851562 177.035156 105.441406 179.453125 102.480469 179.453125 C 99.515625 179.453125 97.105469 177.035156 97.105469 174.066406 L 97.105469 103.21875 C 97.105469 101.113281 95.398438 99.410156 93.296875 99.410156 C 91.191406 99.410156 89.488281 101.113281 89.488281 103.21875 L 89.488281 116.324219 C 89.167969 116.425781 88.859375 116.570312 88.570312 116.761719 C 83.644531 114.910156 80.132812 110.144531 80.132812 104.570312 L 80.132812 80 C 80.132812 76.261719 81.585938 72.746094 84.222656 70.101562 L 91.902344 62.410156 C 96.234375 58.070312 98.621094 52.300781 98.621094 46.160156 L 98.621094 44.488281 L 106.28125 44.488281 C 108.382812 44.488281 110.089844 42.785156 110.089844 40.679688 C 110.089844 38.574219 108.382812 36.871094 106.28125 36.871094 L 90.417969 36.871094 C 90.179688 36.871094 89.984375 36.675781 89.984375 36.4375 L 89.984375 11.101562 C 89.984375 10.859375 90.179688 10.664062 90.417969 10.664062 L 161.558594 10.664062 C 161.800781 10.664062 161.996094 10.859375 161.996094 11.101562 L 161.996094 36.4375 C 161.996094 36.675781 161.800781 36.871094 161.558594 36.871094 L 124.160156 36.871094 C 122.058594 36.871094 120.351562 38.574219 120.351562 40.679688 C 120.351562 42.785156 122.058594 44.488281 124.160156 44.488281 L 153.683594 44.488281 L 153.683594 47.679688 C 153.683594 53.265625 155.707031 58.652344 159.386719 62.851562 C 161.628906 65.40625 162.863281 68.6875 162.863281 72.085938 Z M 252.257812 198.9375 L 201.949219 249.335938 C 201.863281 249.421875 201.765625 249.460938 201.644531 249.460938 C 201.527344 249.460938 201.425781 249.421875 201.339844 249.335938 L 183.460938 231.425781 C 183.289062 231.253906 183.289062 230.972656 183.460938 230.800781 L 186.339844 227.917969 C 186.339844 227.917969 186.34375 227.914062 186.34375 227.914062 L 215.546875 198.660156 L 233.773438 180.402344 C 233.9375 180.234375 234.210938 180.234375 234.375 180.402344 L 252.257812 198.316406 C 252.429688 198.488281 252.429688 198.765625 252.257812 198.9375 Z M 252.257812 198.9375 "/>
<path style=" stroke:none;fill-rule:nonzero;fill:rgb(100%,100%,100%);fill-opacity:1;" d="M 102.476562 19.707031 C 100.242188 19.707031 98.421875 21.527344 98.421875 23.769531 C 98.421875 26.007812 100.242188 27.832031 102.476562 27.832031 C 104.714844 27.832031 106.535156 26.007812 106.535156 23.769531 C 106.535156 21.527344 104.714844 19.707031 102.476562 19.707031 Z M 102.476562 19.707031 "/>
<path style=" stroke:none;fill-rule:nonzero;fill:rgb(100%,100%,100%);fill-opacity:1;" d="M 235.320312 193.316406 C 233.082031 193.316406 231.265625 195.140625 231.265625 197.378906 C 231.265625 199.621094 233.082031 201.441406 235.320312 201.441406 C 237.558594 201.441406 239.375 199.621094 239.375 197.378906 C 239.375 195.140625 237.558594 193.316406 235.320312 193.316406 Z M 235.320312 193.316406 "/>
<path style=" stroke:none;fill-rule:nonzero;fill:rgb(100%,100%,100%);fill-opacity:1;" d="M 63.46875 232.171875 C 63.46875 229.933594 61.648438 228.109375 59.414062 228.109375 C 57.175781 228.109375 55.355469 229.933594 55.355469 232.171875 C 55.355469 234.414062 57.175781 236.234375 59.414062 236.234375 C 61.648438 236.234375 63.46875 234.414062 63.46875 232.171875 Z M 63.46875 232.171875 "/>
</g>
</svg>
