<?xml version="1.0" encoding="UTF-8"?>
<svg xmlns="http://www.w3.org/2000/svg" xmlns:xlink="http://www.w3.org/1999/xlink" width="260pt" height="260pt" viewBox="0 0 260 260" version="1.1">
<g id="surface1">
<path style=" stroke:none;fill-rule:nonzero;fill:rgb(100%,100%,100%);fill-opacity:1;" d="M 67.285156 166.929688 C 78.496094 171.621094 89.785156 173.96875 101.078125 173.96875 C 112.367188 173.96875 123.660156 171.621094 134.871094 166.929688 C 138.378906 165.460938 140.648438 162.058594 140.648438 158.265625 L 140.648438 121.636719 L 158.320312 111.914062 C 159.933594 111.023438 160.9375 109.328125 160.9375 107.484375 C 160.9375 105.636719 159.933594 103.941406 158.320312 103.054688 L 103.511719 72.894531 C 101.988281 72.054688 100.167969 72.054688 98.640625 72.894531 L 43.835938 103.054688 C 42.222656 103.941406 41.21875 105.640625 41.21875 107.484375 C 41.21875 109.328125 42.222656 111.023438 43.835938 111.914062 L 61.507812 121.636719 L 61.507812 158.265625 C 61.507812 162.058594 63.777344 165.460938 67.285156 166.929688 Z M 133.03125 158.265625 C 133.03125 158.980469 132.597656 159.625 131.929688 159.902344 C 111.457031 168.472656 90.699219 168.472656 70.226562 159.902344 C 69.558594 159.625 69.125 158.980469 69.125 158.265625 L 69.125 125.828125 L 98.640625 142.070312 C 99.40625 142.488281 100.242188 142.699219 101.078125 142.699219 C 101.914062 142.699219 102.75 142.488281 103.515625 142.070312 L 118.398438 133.878906 L 118.398438 154.183594 C 118.398438 156.285156 120.101562 157.992188 122.207031 157.992188 C 124.308594 157.992188 126.015625 156.285156 126.015625 154.183594 L 126.015625 129.6875 L 133.03125 125.828125 Z M 101.078125 80.25 L 150.566406 107.484375 C 146.554688 109.691406 127.121094 120.386719 122.800781 122.761719 L 103.691406 104.714844 C 102.164062 103.269531 99.753906 103.335938 98.308594 104.867188 C 96.863281 106.398438 96.933594 108.808594 98.460938 110.25 L 115.792969 126.621094 L 101.078125 134.71875 C 95.898438 131.867188 57.3125 110.632812 51.585938 107.484375 Z M 101.078125 80.25 "/>
<path style=" stroke:none;fill-rule:nonzero;fill:rgb(100%,100%,100%);fill-opacity:1;" d="M 68.003906 78.640625 C 70.105469 78.640625 71.8125 76.9375 71.8125 74.832031 C 71.8125 72.726562 70.105469 71.023438 68.003906 71.023438 L 52.550781 71.023438 C 50.445312 71.023438 48.742188 72.726562 48.742188 74.832031 C 48.742188 76.9375 50.445312 78.640625 52.550781 78.640625 Z M 68.003906 78.640625 "/>
<path style=" stroke:none;fill-rule:nonzero;fill:rgb(100%,100%,100%);fill-opacity:1;" d="M 249.351562 183.773438 L 246.355469 183.773438 L 246.355469 49.074219 C 246.355469 43.867188 242.121094 39.632812 236.917969 39.632812 L 60.164062 39.632812 C 58.0625 39.632812 56.355469 41.339844 56.355469 43.441406 C 56.355469 45.546875 58.0625 47.25 60.164062 47.25 L 236.917969 47.25 C 237.921875 47.25 238.738281 48.070312 238.738281 49.074219 L 238.738281 183.773438 L 231.121094 183.773438 L 231.121094 145.941406 C 231.121094 143.839844 229.417969 142.132812 227.3125 142.132812 C 225.210938 142.132812 223.503906 143.839844 223.503906 145.941406 L 223.503906 183.773438 L 36.496094 183.773438 L 36.496094 62.484375 L 223.503906 62.484375 L 223.503906 130.714844 C 223.503906 132.816406 225.210938 134.523438 227.3125 134.523438 C 229.417969 134.523438 231.121094 132.816406 231.121094 130.714844 L 231.121094 58.675781 C 231.121094 56.574219 229.417969 54.867188 227.3125 54.867188 L 32.6875 54.867188 C 30.582031 54.867188 28.878906 56.574219 28.878906 58.675781 L 28.878906 183.773438 L 21.261719 183.773438 L 21.261719 49.074219 C 21.261719 48.070312 22.078125 47.25 23.082031 47.25 L 44.9375 47.25 C 47.039062 47.25 48.746094 45.546875 48.746094 43.441406 C 48.746094 41.339844 47.039062 39.632812 44.9375 39.632812 L 23.082031 39.632812 C 17.878906 39.632812 13.644531 43.867188 13.644531 49.074219 L 13.644531 183.773438 L 10.648438 183.773438 C 4.777344 183.773438 0 188.550781 0 194.421875 L 0 209.714844 C 0 215.585938 4.777344 220.367188 10.648438 220.367188 L 86.625 220.367188 C 88.730469 220.367188 90.433594 218.660156 90.433594 216.558594 C 90.433594 214.453125 88.730469 212.75 86.625 212.75 L 10.648438 212.75 C 8.976562 212.75 7.617188 211.386719 7.617188 209.714844 L 7.617188 194.421875 C 7.617188 192.75 8.976562 191.390625 10.648438 191.390625 L 99.867188 191.390625 L 104.679688 201.488281 C 105.949219 204.15625 108.675781 205.878906 111.628906 205.878906 L 148.371094 205.878906 C 151.324219 205.878906 154.050781 204.15625 155.320312 201.488281 L 160.132812 191.390625 L 249.351562 191.390625 C 251.023438 191.390625 252.382812 192.75 252.382812 194.421875 L 252.382812 209.714844 C 252.382812 211.386719 251.023438 212.75 249.351562 212.75 L 101.851562 212.75 C 99.75 212.75 98.042969 214.453125 98.042969 216.558594 C 98.042969 218.660156 99.75 220.367188 101.851562 220.367188 L 249.351562 220.367188 C 255.222656 220.367188 260 215.589844 260 209.714844 L 260 194.421875 C 260 188.550781 255.222656 183.773438 249.351562 183.773438 Z M 148.445312 198.214844 C 148.429688 198.242188 148.402344 198.261719 148.371094 198.261719 L 111.628906 198.261719 C 111.597656 198.261719 111.570312 198.242188 111.554688 198.214844 L 108.304688 191.390625 L 151.695312 191.390625 Z M 148.445312 198.214844 "/>
<path style=" stroke:none;fill-rule:nonzero;fill:rgb(100%,100%,100%);fill-opacity:1;" d="M 160.144531 160.816406 L 209.347656 160.816406 C 212.578125 160.816406 215.203125 158.1875 215.203125 154.960938 L 215.203125 137.125 C 215.203125 133.894531 212.578125 131.269531 209.347656 131.269531 L 160.144531 131.269531 C 156.917969 131.269531 154.292969 133.894531 154.292969 137.125 L 154.292969 154.960938 C 154.292969 158.1875 156.917969 160.816406 160.144531 160.816406 Z M 161.910156 138.886719 L 207.585938 138.886719 L 207.585938 153.199219 L 161.910156 153.199219 Z M 161.910156 138.886719 "/>
</g>
</svg>
