<svg id="Capa_1" enable-background="new 0 0 512 512" height="512" viewBox="0 0 512 512" width="512" xmlns="http://www.w3.org/2000/svg"><g><path d="m132.499 328.724c22.081 9.24 44.31 13.86 66.546 13.859 22.231-.001 44.471-4.621 66.546-13.859 6.911-2.892 11.377-9.59 11.377-17.064v-72.13l34.799-19.149c3.181-1.75 5.156-5.092 5.156-8.723 0-3.632-1.977-6.974-5.156-8.723l-107.925-59.389c-3.002-1.65-6.589-1.651-9.597.001l-107.921 59.389c-3.181 1.75-5.156 5.092-5.156 8.723s1.976 6.973 5.155 8.723l34.8 19.149v72.129c0 7.474 4.466 14.172 11.376 17.064zm129.469-17.065c0 1.409-.851 2.676-2.167 3.227-40.313 16.872-81.196 16.874-121.512 0-1.315-.551-2.166-1.817-2.166-3.227v-63.875l58.126 31.985c1.501.825 3.148 1.238 4.796 1.238s3.297-.413 4.801-1.239l29.306-16.127v39.981c0 4.143 3.357 7.5 7.5 7.5s7.5-3.357 7.5-7.5v-48.235l13.816-7.603zm-62.923-153.631 97.458 53.63c-7.906 4.35-46.175 25.41-54.677 30.089l-37.631-35.541c-3.01-2.844-7.758-2.711-10.602.303-2.845 3.011-2.709 7.758.303 10.602l34.128 32.232-28.977 15.946c-10.204-5.615-86.189-47.428-97.459-53.63z"/><path d="m133.914 154.862c4.143 0 7.5-3.357 7.5-7.5s-3.357-7.5-7.5-7.5h-30.431c-4.143 0-7.5 3.357-7.5 7.5s3.357 7.5 7.5 7.5z"/><path d="m491.028 361.891h-5.896v-265.255c0-10.249-8.338-18.587-18.587-18.587h-348.067c-4.143 0-7.5 3.357-7.5 7.5s3.357 7.5 7.5 7.5h348.068c1.978 0 3.587 1.609 3.587 3.587v265.255h-15v-74.496c0-4.143-3.357-7.5-7.5-7.5s-7.5 3.357-7.5 7.5v74.496h-368.265v-238.842h368.265v134.358c0 4.143 3.357 7.5 7.5 7.5s7.5-3.357 7.5-7.5v-141.858c0-4.143-3.357-7.5-7.5-7.5h-383.265c-4.143 0-7.5 3.357-7.5 7.5v246.342h-15v-265.255c0-1.978 1.609-3.587 3.587-3.587h43.035c4.143 0 7.5-3.357 7.5-7.5s-3.357-7.5-7.5-7.5h-43.035c-10.249 0-18.587 8.338-18.587 18.587v265.255h-5.896c-11.564 0-20.972 9.408-20.972 20.971v30.116c0 11.564 9.408 20.973 20.973 20.973h149.612c4.143 0 7.5-3.357 7.5-7.5s-3.357-7.5-7.5-7.5h-149.612c-3.293 0-5.973-2.68-5.973-5.973v-30.116c0-3.293 2.68-5.972 5.973-5.972h175.689l9.474 19.889c2.502 5.25 7.875 8.642 13.689 8.642h72.35c5.816 0 11.189-3.393 13.69-8.643l9.474-19.888h175.689c3.293 0 5.972 2.679 5.972 5.972v30.116c0 3.293-2.679 5.973-5.972 5.973h-290.456c-4.143 0-7.5 3.357-7.5 7.5s3.357 7.5 7.5 7.5h290.456c11.563 0 20.972-9.408 20.972-20.973v-30.116c0-11.563-9.408-20.971-20.972-20.971zm-198.706 28.437c-.026.057-.085.093-.147.093h-72.35c-.062 0-.121-.037-.147-.094l-6.4-13.437h85.446z"/><path d="m315.362 316.681h96.895c6.355 0 11.526-5.171 11.526-11.526v-35.128c0-6.355-5.171-11.526-11.526-11.526h-96.895c-6.355 0-11.526 5.171-11.526 11.526v35.128c0 6.355 5.171 11.526 11.526 11.526zm3.474-43.181h89.947v28.181h-89.947z"/></g></svg>