<?xml version="1.0" encoding="UTF-8"?>
<svg xmlns="http://www.w3.org/2000/svg" xmlns:xlink="http://www.w3.org/1999/xlink" width="260pt" height="260pt" viewBox="0 0 260 260" version="1.1">
<g id="surface1">
<path style=" stroke:none;fill-rule:nonzero;fill:rgb(100%,72.54902%,27.843137%);fill-opacity:1;" d="M 239.6875 60.9375 L 145.601562 60.9375 L 144.097656 52.367188 C 152.753906 46.226562 156.445312 35.195312 153.226562 25.082031 C 150.003906 14.972656 140.613281 8.105469 130 8.105469 C 119.386719 8.105469 109.996094 14.972656 106.773438 25.082031 C 103.554688 35.195312 107.246094 46.226562 115.902344 52.367188 L 114.398438 60.9375 L 24.375 60.9375 C 15.398438 60.9375 8.125 68.210938 8.125 77.1875 L 8.125 203.125 C 8.144531 209.847656 13.589844 215.292969 20.3125 215.3125 L 113.75 215.3125 L 113.75 227.5 L 89.375 227.5 C 87.132812 227.5 85.3125 229.320312 85.3125 231.5625 L 85.3125 247.8125 C 85.3125 250.054688 87.132812 251.875 89.375 251.875 L 170.625 251.875 C 172.867188 251.875 174.6875 250.054688 174.6875 247.8125 L 174.6875 231.5625 C 174.6875 229.320312 172.867188 227.5 170.625 227.5 L 146.25 227.5 L 146.25 215.3125 L 239.6875 215.3125 C 246.410156 215.292969 251.855469 209.847656 251.875 203.125 L 251.875 73.125 C 251.855469 66.402344 246.410156 60.957031 239.6875 60.9375 Z M 113.75 32.5 C 113.75 23.523438 121.023438 16.25 130 16.25 C 138.976562 16.25 146.25 23.523438 146.25 32.5 C 146.25 41.476562 138.976562 48.75 130 48.75 C 121.023438 48.75 113.75 41.476562 113.75 32.5 Z M 137.351562 60.9375 L 122.648438 60.9375 L 123.5 55.980469 C 127.75 57.171875 132.25 57.171875 136.5 55.980469 Z M 166.5625 235.625 L 166.5625 243.75 L 93.4375 243.75 L 93.4375 235.625 Z M 121.875 227.5 L 121.875 215.3125 L 138.125 215.3125 L 138.125 227.5 Z M 243.75 203.125 C 243.75 205.367188 241.929688 207.1875 239.6875 207.1875 L 20.3125 207.1875 C 18.070312 207.1875 16.25 205.367188 16.25 203.125 L 16.25 199.0625 L 243.75 199.0625 Z M 243.75 190.9375 L 16.25 190.9375 L 16.25 77.1875 C 16.261719 72.707031 19.894531 69.074219 24.375 69.0625 L 239.6875 69.0625 C 241.929688 69.0625 243.75 70.882812 243.75 73.125 Z M 243.75 190.9375 "/>
<path style=" stroke:none;fill-rule:nonzero;fill:rgb(100%,72.54902%,27.843137%);fill-opacity:1;" d="M 130 44.6875 C 136.730469 44.6875 142.1875 39.230469 142.1875 32.5 C 142.1875 25.769531 136.730469 20.3125 130 20.3125 C 123.269531 20.3125 117.8125 25.769531 117.8125 32.5 C 117.8125 39.230469 123.269531 44.6875 130 44.6875 Z M 130 28.4375 C 132.242188 28.4375 134.0625 30.257812 134.0625 32.5 C 134.0625 34.742188 132.242188 36.5625 130 36.5625 C 127.757812 36.5625 125.9375 34.742188 125.9375 32.5 C 125.9375 30.257812 127.757812 28.4375 130 28.4375 Z M 130 28.4375 "/>
<path style=" stroke:none;fill-rule:nonzero;fill:rgb(100%,72.54902%,27.843137%);fill-opacity:1;" d="M 235.625 73.125 L 24.375 73.125 C 22.132812 73.125 20.3125 74.945312 20.3125 77.1875 L 20.3125 182.8125 C 20.3125 185.054688 22.132812 186.875 24.375 186.875 L 235.625 186.875 C 237.867188 186.875 239.6875 185.054688 239.6875 182.8125 L 239.6875 77.1875 C 239.6875 74.945312 237.867188 73.125 235.625 73.125 Z M 119.476562 178.75 L 44.6875 178.75 L 44.6875 174.6875 C 44.707031 167.964844 50.152344 162.519531 56.875 162.5 L 62.96875 162.5 L 73.9375 177.125 C 74.703125 178.148438 75.910156 178.75 77.1875 178.75 C 78.464844 178.75 79.671875 178.148438 80.4375 177.125 L 91.40625 162.5 L 100.261719 162.5 L 107.453125 167.617188 C 108.355469 168.304688 109.515625 168.558594 110.621094 168.308594 C 111.730469 168.097656 112.695312 167.417969 113.261719 166.441406 L 119.355469 156.570312 L 128.171875 163.148438 Z M 60.9375 113.75 L 93.4375 113.75 L 93.4375 125.9375 C 93.4375 134.914062 86.164062 142.1875 77.1875 142.1875 C 68.210938 142.1875 60.9375 134.914062 60.9375 125.9375 Z M 49.277344 105.625 C 50.621094 100.28125 54.597656 95.996094 59.824219 94.257812 C 65.050781 92.523438 70.804688 93.578125 75.074219 97.054688 C 76.046875 97.824219 77.320312 98.109375 78.527344 97.824219 C 79.421875 97.625 80.335938 97.515625 81.25 97.5 C 86.410156 97.515625 91.011719 100.765625 92.746094 105.625 Z M 69.957031 154.375 L 70.929688 149.460938 C 75.023438 150.597656 79.351562 150.597656 83.445312 149.460938 L 84.417969 154.375 Z M 81.25 162.5 L 77.1875 167.902344 L 73.125 162.5 Z M 123.621094 149.621094 L 124.960938 147.46875 C 126.367188 145.167969 129.304688 144.335938 131.707031 145.558594 C 132.972656 146.199219 133.925781 147.328125 134.34375 148.683594 C 134.765625 150.035156 134.621094 151.503906 133.941406 152.75 L 132.152344 155.960938 Z M 231.5625 178.75 L 128.78125 178.75 L 141.050781 156.691406 C 142.828125 153.519531 143.210938 149.753906 142.105469 146.289062 C 141.53125 144.367188 140.5 142.613281 139.101562 141.171875 L 153.929688 111.515625 L 146.695312 107.859375 L 132.03125 137.191406 C 126.558594 136.039062 120.953125 138.441406 118.015625 143.203125 L 108.632812 158.476562 L 103.917969 155.148438 C 103.242188 154.632812 102.410156 154.363281 101.5625 154.375 L 92.707031 154.375 L 91.039062 145.964844 C 97.621094 141.421875 101.554688 133.933594 101.5625 125.9375 L 101.5625 109.6875 C 101.5625 98.46875 92.46875 89.375 81.25 89.375 C 80.367188 89.382812 79.484375 89.453125 78.609375 89.578125 C 74.617188 86.796875 69.867188 85.308594 65 85.3125 C 51.539062 85.3125 40.625 96.226562 40.625 109.6875 C 40.625 111.929688 42.445312 113.75 44.6875 113.75 L 52.8125 113.75 L 52.8125 125.9375 C 52.820312 133.933594 56.753906 141.421875 63.335938 145.964844 L 61.667969 154.375 L 56.875 154.375 C 45.65625 154.375 36.5625 163.46875 36.5625 174.6875 L 36.5625 178.75 L 28.4375 178.75 L 28.4375 81.25 L 231.5625 81.25 Z M 231.5625 178.75 "/>
<path style=" stroke:none;fill-rule:nonzero;fill:rgb(100%,72.54902%,27.843137%);fill-opacity:1;" d="M 158.4375 89.375 L 190.9375 89.375 L 190.9375 97.5 L 158.4375 97.5 Z M 158.4375 89.375 "/>
<path style=" stroke:none;fill-rule:nonzero;fill:rgb(100%,72.54902%,27.843137%);fill-opacity:1;" d="M 199.0625 89.375 L 223.4375 89.375 L 223.4375 97.5 L 199.0625 97.5 Z M 199.0625 89.375 "/>
<path style=" stroke:none;fill-rule:nonzero;fill:rgb(100%,72.54902%,27.843137%);fill-opacity:1;" d="M 158.4375 105.625 L 174.6875 105.625 L 174.6875 113.75 L 158.4375 113.75 Z M 158.4375 105.625 "/>
<path style=" stroke:none;fill-rule:nonzero;fill:rgb(100%,72.54902%,27.843137%);fill-opacity:1;" d="M 182.8125 105.625 L 223.4375 105.625 L 223.4375 113.75 L 182.8125 113.75 Z M 182.8125 105.625 "/>
<path style=" stroke:none;fill-rule:nonzero;fill:rgb(100%,72.54902%,27.843137%);fill-opacity:1;" d="M 158.4375 121.875 L 182.8125 121.875 L 182.8125 130 L 158.4375 130 Z M 158.4375 121.875 "/>
<path style=" stroke:none;fill-rule:nonzero;fill:rgb(100%,72.54902%,27.843137%);fill-opacity:1;" d="M 190.9375 121.875 L 223.4375 121.875 L 223.4375 130 L 190.9375 130 Z M 190.9375 121.875 "/>
<path style=" stroke:none;fill-rule:nonzero;fill:rgb(100%,72.54902%,27.843137%);fill-opacity:1;" d="M 158.4375 138.125 L 223.4375 138.125 L 223.4375 146.25 L 158.4375 146.25 Z M 158.4375 138.125 "/>
<path style=" stroke:none;fill-rule:nonzero;fill:rgb(100%,72.54902%,27.843137%);fill-opacity:1;" d="M 158.4375 154.375 L 223.4375 154.375 L 223.4375 162.5 L 158.4375 162.5 Z M 158.4375 154.375 "/>
</g>
</svg>
