<?xml version="1.0" encoding="UTF-8"?>
<svg xmlns="http://www.w3.org/2000/svg" xmlns:xlink="http://www.w3.org/1999/xlink" width="640pt" height="640pt" viewBox="0 0 640 640" version="1.1">
<g id="surface1">
<path style=" stroke:none;fill-rule:nonzero;fill:rgb(0%,0%,0%);fill-opacity:1;" d="M 603.855469 86.035156 L 576.507812 61.953125 L 603.855469 37.875 C 608.109375 34.125 609.566406 28.28125 607.566406 22.976562 C 605.5625 17.671875 600.605469 14.242188 594.9375 14.242188 L 481.761719 14.242188 L 481.761719 9.378906 C 481.761719 4.199219 477.5625 0 472.382812 0 C 467.203125 0 463.003906 4.199219 463.003906 9.378906 L 463.003906 135.882812 L 385.964844 177.714844 C 385.542969 174.324219 384.527344 170.996094 382.917969 167.859375 L 372.066406 146.667969 C 364.613281 132.117188 346.714844 126.351562 332.171875 133.796875 L 323.777344 138.09375 C 316.730469 141.707031 311.507812 147.839844 309.078125 155.378906 C 306.644531 162.914062 307.296875 170.945312 310.910156 177.992188 L 321.761719 199.1875 C 324.296875 204.136719 328.042969 208.050781 332.445312 210.796875 C 326.683594 218.554688 323.949219 228.09375 321.136719 238.007812 L 319.117188 245.164062 C 317.707031 250.152344 320.605469 255.335938 325.589844 256.742188 C 326.441406 256.988281 327.300781 257.097656 328.144531 257.097656 C 332.234375 257.097656 335.996094 254.402344 337.167969 250.269531 L 339.1875 243.125 C 343.300781 228.628906 345.824219 220.863281 353.863281 216.5 L 368.269531 208.671875 L 370.046875 207.761719 C 370.640625 207.460938 371.191406 207.117188 371.753906 206.78125 L 474.449219 151.015625 C 473.796875 163.851562 466.890625 175.980469 455.511719 182.890625 L 388.730469 223.464844 C 388.652344 223.511719 388.574219 223.554688 388.5 223.601562 L 367.714844 236.230469 C 363.289062 238.921875 361.878906 244.691406 364.570312 249.121094 C 367.105469 253.296875 372.378906 254.78125 376.679688 252.683594 L 360.90625 300.359375 L 349.378906 305.085938 L 318.03125 317.933594 L 327.066406 286 C 328.472656 281.015625 325.574219 275.828125 320.589844 274.417969 C 315.601562 273.003906 310.421875 275.90625 309.007812 280.894531 L 294.738281 331.367188 C 294.550781 332.015625 294.429688 332.730469 294.398438 333.40625 L 290.664062 402.019531 C 290.550781 404.636719 291.109375 409.585938 289.898438 412.136719 L 248.414062 499.414062 L 218.265625 499.414062 C 200.605469 499.414062 186.242188 513.777344 186.242188 531.433594 L 186.242188 558.507812 C 182.199219 556.660156 177.710938 555.625 172.980469 555.625 L 96.421875 555.625 C 78.765625 555.625 64.398438 569.984375 64.398438 587.644531 L 64.398438 621.238281 L 41.878906 621.238281 C 36.699219 621.238281 32.5 625.4375 32.5 630.617188 C 32.5 635.800781 36.699219 640 41.878906 640 L 594.925781 640 C 600.105469 640 604.304688 635.800781 604.304688 630.617188 C 604.304688 625.4375 600.105469 621.238281 594.925781 621.238281 L 570.53125 621.238281 L 570.53125 379.46875 C 570.53125 361.8125 556.167969 347.445312 538.511719 347.445312 L 481.761719 347.445312 L 481.761719 183.808594 C 492.164062 169.710938 496.015625 151.234375 491.1875 133.675781 C 490.429688 130.917969 488.453125 128.652344 485.816406 127.535156 C 484.519531 126.980469 483.132812 126.738281 481.761719 126.792969 L 481.761719 109.667969 L 594.929688 109.667969 C 600.605469 109.667969 605.5625 106.238281 607.5625 100.9375 C 609.566406 95.632812 608.109375 89.785156 603.855469 86.035156 Z M 326.933594 161.140625 C 327.828125 158.375 329.742188 156.117188 332.328125 154.792969 L 340.722656 150.496094 C 342.304688 149.6875 343.992188 149.300781 345.664062 149.300781 C 349.617188 149.300781 353.441406 151.464844 355.367188 155.21875 L 366.226562 176.414062 C 368.757812 181.367188 367.117188 187.367188 362.613281 190.398438 L 359.554688 192.054688 L 353.105469 195.359375 C 347.769531 198.09375 341.195312 195.976562 338.460938 190.632812 L 327.601562 169.441406 C 326.277344 166.855469 326.039062 163.90625 326.933594 161.140625 Z M 308.085938 502.296875 C 304.898438 500.84375 301.429688 499.890625 297.789062 499.554688 L 308.085938 485.878906 Z M 352.621094 426.71875 C 357.132812 421.3125 358.378906 415 359.382812 409.910156 C 359.636719 408.699219 364.265625 383.417969 364.265625 383.417969 C 364.265625 383.417969 368.648438 386.148438 369.105469 386.34375 C 369.421875 386.484375 369.648438 386.796875 369.683594 387.164062 L 374.785156 439.03125 L 343.347656 439.03125 Z M 408.089844 374.945312 L 400.171875 438.988281 L 393.632812 438.988281 L 388.355469 385.328125 C 387.679688 378.453125 383.472656 372.449219 377.304688 369.46875 L 367.871094 363.484375 L 374.15625 328.65625 C 374.15625 328.65625 400.628906 360.105469 401.246094 360.90625 C 406.722656 368.03125 408.597656 370.882812 408.089844 374.945312 Z M 306.773438 420.339844 C 308.667969 414.636719 309.546875 408.832031 309.398438 402.929688 L 312.808594 340.351562 L 356.191406 322.574219 L 348.304688 366.253906 C 348.28125 366.371094 348.257812 366.492188 348.242188 366.609375 L 341.71875 402.730469 C 340.867188 406.46875 340.125 412.144531 337.792969 415.222656 L 274.410156 499.414062 L 269.183594 499.414062 Z M 83.160156 587.640625 C 83.160156 580.332031 89.105469 574.382812 96.421875 574.382812 L 172.980469 574.382812 C 180.292969 574.382812 186.246094 580.332031 186.246094 587.640625 L 186.246094 621.238281 L 83.160156 621.238281 Z M 205 587.640625 L 205 531.433594 C 205 524.121094 210.953125 518.171875 218.265625 518.171875 L 294.824219 518.171875 C 302.140625 518.171875 308.085938 524.121094 308.085938 531.433594 L 308.085938 621.238281 L 205.003906 621.238281 L 205.003906 587.640625 Z M 551.773438 379.46875 L 551.773438 621.238281 L 448.691406 621.238281 L 448.691406 565 C 448.691406 559.816406 444.492188 555.617188 439.3125 555.617188 C 434.125 555.617188 429.925781 559.816406 429.925781 565 L 429.925781 621.238281 L 326.84375 621.238281 L 326.84375 471.050781 C 326.84375 463.738281 332.792969 457.792969 340.105469 457.792969 L 416.664062 457.792969 C 423.980469 457.792969 429.925781 463.738281 429.925781 471.050781 L 429.925781 518.070312 C 429.925781 523.25 434.125 527.449219 439.304688 527.449219 C 444.492188 527.449219 448.6875 523.25 448.6875 518.070312 L 448.6875 379.46875 C 448.6875 372.152344 454.636719 366.207031 461.953125 366.207031 L 472.285156 366.207031 C 472.3125 366.207031 472.347656 366.210938 472.382812 366.210938 C 472.410156 366.210938 472.445312 366.207031 472.476562 366.207031 L 538.503906 366.207031 C 545.820312 366.207031 551.773438 372.15625 551.773438 379.46875 Z M 461.953125 347.445312 C 444.296875 347.445312 429.929688 361.8125 429.929688 379.46875 L 429.929688 441.917969 C 426.570312 440.386719 422.910156 439.414062 419.058594 439.128906 L 426.707031 377.253906 C 428.210938 365.195312 422.058594 357.203125 416.113281 349.46875 C 415.484375 348.648438 379.023438 305.355469 379.023438 305.355469 L 401.390625 237.730469 L 463.003906 200.296875 L 463.003906 347.445312 Z M 481.761719 90.902344 L 481.761719 33.007812 L 580.996094 33.007812 L 559.625 51.824219 C 556.714844 54.390625 555.042969 58.082031 555.042969 61.957031 C 555.042969 65.835938 556.714844 69.527344 559.625 72.089844 L 580.996094 90.90625 L 481.761719 90.90625 Z M 481.761719 90.902344 "/>
</g>
</svg>
