<?xml version="1.0" encoding="UTF-8"?>
<svg xmlns="http://www.w3.org/2000/svg" xmlns:xlink="http://www.w3.org/1999/xlink" width="260pt" height="260pt" viewBox="0 0 260 260" version="1.1">
<g id="surface1">
<path style=" stroke:none;fill-rule:nonzero;fill:rgb(100%,72.54902%,27.843137%);fill-opacity:1;" d="M 130 154.375 C 138.960938 154.375 146.25 147.085938 146.25 138.125 L 146.25 130 L 113.75 130 L 113.75 138.125 C 113.75 147.085938 121.039062 154.375 130 154.375 Z M 138.125 138.125 C 138.125 142.605469 134.480469 146.25 130 146.25 C 125.519531 146.25 121.875 142.605469 121.875 138.125 Z M 138.125 138.125 "/>
<path style=" stroke:none;fill-rule:nonzero;fill:rgb(100%,72.54902%,27.843137%);fill-opacity:1;" d="M 89.375 54.039062 L 111.386719 35.695312 C 115.46875 32.292969 117.8125 27.289062 117.8125 21.96875 C 117.8125 17.199219 115.957031 12.714844 112.558594 9.316406 C 109.171875 5.925781 104.671875 4.0625 99.878906 4.0625 L 99.183594 4.0625 C 95.648438 4.0625 92.265625 5.078125 89.375 6.976562 C 86.484375 5.078125 83.101562 4.0625 79.566406 4.0625 L 78.871094 4.0625 C 74.078125 4.0625 69.578125 5.925781 66.164062 9.335938 C 62.792969 12.710938 60.9375 17.199219 60.9375 21.96875 C 60.9375 27.292969 63.28125 32.292969 67.363281 35.695312 Z M 71.933594 15.0625 C 73.789062 13.207031 76.253906 12.1875 78.871094 12.1875 L 79.566406 12.1875 C 82.1875 12.1875 84.648438 13.207031 86.503906 15.0625 L 89.375 17.933594 L 92.246094 15.0625 C 94.101562 13.207031 96.566406 12.1875 99.183594 12.1875 L 99.878906 12.1875 C 102.5 12.1875 104.960938 13.207031 106.832031 15.074219 C 108.671875 16.921875 109.6875 19.371094 109.6875 21.96875 C 109.6875 24.871094 108.410156 27.601562 106.179688 29.457031 L 89.375 43.460938 L 72.570312 29.457031 C 70.339844 27.601562 69.0625 24.871094 69.0625 21.96875 C 69.0625 19.371094 70.078125 16.921875 71.933594 15.0625 Z M 71.933594 15.0625 "/>
<path style=" stroke:none;fill-rule:nonzero;fill:rgb(100%,72.54902%,27.843137%);fill-opacity:1;" d="M 32.5 94.664062 L 54.511719 76.320312 C 58.59375 72.917969 60.9375 67.914062 60.9375 62.59375 C 60.9375 57.824219 59.082031 53.339844 55.683594 49.941406 C 52.296875 46.550781 47.796875 44.6875 43.003906 44.6875 L 42.308594 44.6875 C 38.773438 44.6875 35.390625 45.703125 32.5 47.601562 C 29.609375 45.703125 26.226562 44.6875 22.691406 44.6875 L 21.996094 44.6875 C 17.203125 44.6875 12.703125 46.550781 9.289062 49.960938 C 5.917969 53.335938 4.0625 57.824219 4.0625 62.59375 C 4.0625 67.917969 6.40625 72.917969 10.488281 76.320312 Z M 15.058594 55.6875 C 16.914062 53.832031 19.378906 52.8125 21.996094 52.8125 L 22.691406 52.8125 C 25.3125 52.8125 27.773438 53.832031 29.628906 55.6875 L 32.5 58.558594 L 35.371094 55.6875 C 37.226562 53.832031 39.691406 52.8125 42.308594 52.8125 L 43.003906 52.8125 C 45.625 52.8125 48.085938 53.832031 49.957031 55.699219 C 51.796875 57.546875 52.8125 59.996094 52.8125 62.59375 C 52.8125 65.496094 51.535156 68.226562 49.304688 70.082031 L 32.5 84.085938 L 15.695312 70.082031 C 13.464844 68.226562 12.1875 65.496094 12.1875 62.59375 C 12.1875 59.996094 13.203125 57.546875 15.058594 55.6875 Z M 15.058594 55.6875 "/>
<path style=" stroke:none;fill-rule:nonzero;fill:rgb(100%,72.54902%,27.843137%);fill-opacity:1;" d="M 170.625 54.039062 L 192.636719 35.695312 C 196.71875 32.292969 199.0625 27.289062 199.0625 21.96875 C 199.0625 17.199219 197.207031 12.714844 193.808594 9.316406 C 190.421875 5.925781 185.921875 4.0625 181.128906 4.0625 L 180.433594 4.0625 C 176.898438 4.0625 173.515625 5.078125 170.625 6.976562 C 167.734375 5.078125 164.351562 4.0625 160.816406 4.0625 L 160.121094 4.0625 C 155.328125 4.0625 150.828125 5.925781 147.414062 9.335938 C 144.042969 12.710938 142.1875 17.199219 142.1875 21.96875 C 142.1875 27.292969 144.53125 32.292969 148.613281 35.695312 Z M 153.183594 15.0625 C 155.039062 13.207031 157.503906 12.1875 160.121094 12.1875 L 160.816406 12.1875 C 163.4375 12.1875 165.898438 13.207031 167.753906 15.0625 L 170.625 17.933594 L 173.496094 15.0625 C 175.351562 13.207031 177.816406 12.1875 180.433594 12.1875 L 181.128906 12.1875 C 183.75 12.1875 186.210938 13.207031 188.082031 15.074219 C 189.921875 16.921875 190.9375 19.371094 190.9375 21.96875 C 190.9375 24.871094 189.660156 27.601562 187.429688 29.457031 L 170.625 43.460938 L 153.820312 29.457031 C 151.589844 27.601562 150.3125 24.871094 150.3125 21.96875 C 150.3125 19.371094 151.328125 16.921875 153.183594 15.0625 Z M 153.183594 15.0625 "/>
<path style=" stroke:none;fill-rule:nonzero;fill:rgb(100%,72.54902%,27.843137%);fill-opacity:1;" d="M 205.488281 76.320312 L 227.5 94.664062 L 249.511719 76.320312 C 253.59375 72.917969 255.9375 67.914062 255.9375 62.59375 C 255.9375 57.824219 254.082031 53.339844 250.683594 49.941406 C 247.296875 46.550781 242.796875 44.6875 238.003906 44.6875 L 237.308594 44.6875 C 233.773438 44.6875 230.390625 45.703125 227.5 47.601562 C 224.609375 45.703125 221.226562 44.6875 217.691406 44.6875 L 216.996094 44.6875 C 212.203125 44.6875 207.703125 46.550781 204.289062 49.960938 C 200.917969 53.335938 199.0625 57.824219 199.0625 62.59375 C 199.0625 67.914062 201.40625 72.917969 205.488281 76.320312 Z M 210.058594 55.6875 C 211.914062 53.832031 214.378906 52.8125 216.996094 52.8125 L 217.691406 52.8125 C 220.3125 52.8125 222.773438 53.832031 224.628906 55.6875 L 227.5 58.558594 L 230.371094 55.6875 C 232.226562 53.832031 234.691406 52.8125 237.308594 52.8125 L 238.003906 52.8125 C 240.625 52.8125 243.085938 53.832031 244.957031 55.699219 C 246.796875 57.546875 247.8125 59.996094 247.8125 62.59375 C 247.8125 65.496094 246.535156 68.226562 244.304688 70.082031 L 227.5 84.085938 L 210.695312 70.082031 C 208.464844 68.226562 207.1875 65.496094 207.1875 62.59375 C 207.1875 59.996094 208.203125 57.546875 210.058594 55.6875 Z M 210.058594 55.6875 "/>
<path style=" stroke:none;fill-rule:nonzero;fill:rgb(100%,72.54902%,27.843137%);fill-opacity:1;" d="M 242.945312 113.75 L 237.308594 113.75 L 233.515625 109.960938 C 230.722656 107.164062 227.003906 105.625 223.050781 105.625 C 216.671875 105.625 211.03125 109.691406 209.011719 115.746094 L 207.722656 119.609375 L 151.515625 172.070312 L 148.183594 165.40625 C 155.167969 161.058594 160.507812 154.289062 163.015625 146.253906 L 166.5625 146.253906 C 175.523438 146.253906 182.8125 138.964844 182.8125 130.003906 C 182.8125 126.246094 181.476562 122.824219 179.328125 120.066406 L 181.507812 111.359375 C 182.375 107.875 182.8125 104.300781 182.8125 100.726562 C 182.8125 76.546875 163.140625 56.875 138.960938 56.875 L 121.039062 56.875 C 96.859375 56.875 77.1875 76.546875 77.1875 100.726562 C 77.1875 104.296875 77.625 107.875 78.496094 111.359375 L 80.671875 120.058594 C 78.523438 122.820312 77.1875 126.242188 77.1875 130 C 77.1875 138.960938 84.476562 146.25 93.4375 146.25 L 96.988281 146.25 C 99.496094 154.285156 104.832031 161.058594 111.820312 165.402344 L 108.488281 172.066406 L 52.277344 119.609375 L 50.988281 115.742188 C 48.96875 109.691406 43.328125 105.625 36.949219 105.625 C 32.996094 105.625 29.277344 107.164062 26.484375 109.960938 L 22.691406 113.75 L 17.054688 113.75 C 9.890625 113.75 4.0625 119.578125 4.0625 126.742188 C 4.0625 132.914062 8.453125 138.269531 14.503906 139.480469 L 26.359375 141.851562 L 81.25 200.664062 L 81.25 255.9375 L 178.75 255.9375 L 178.75 200.664062 L 233.640625 141.851562 L 245.496094 139.480469 C 251.546875 138.269531 255.9375 132.914062 255.9375 126.742188 C 255.9375 119.578125 250.109375 113.75 242.945312 113.75 Z M 113.75 187.203125 L 120.148438 192.324219 C 117.925781 192.988281 115.773438 193.847656 113.75 194.984375 Z M 166.5625 138.125 L 164.539062 138.125 L 165.703125 121.875 L 166.5625 121.875 C 171.042969 121.875 174.6875 125.519531 174.6875 130 C 174.6875 134.480469 171.042969 138.125 166.5625 138.125 Z M 85.3125 130 C 85.3125 125.519531 88.957031 121.875 93.4375 121.875 L 94.296875 121.875 L 95.457031 138.125 L 93.4375 138.125 C 88.957031 138.125 85.3125 134.480469 85.3125 130 Z M 93.4375 108.082031 L 93.4375 109.042969 C 93.4375 109.574219 93.457031 110.101562 93.5 110.617188 L 93.722656 113.75 L 93.4375 113.75 C 91.425781 113.75 89.519531 114.164062 87.738281 114.835938 L 86.375 109.394531 C 85.671875 106.554688 85.3125 103.636719 85.3125 100.726562 C 85.3125 81.027344 101.339844 65 121.039062 65 L 138.960938 65 C 158.660156 65 174.6875 81.027344 174.6875 100.726562 C 174.6875 103.632812 174.328125 106.554688 173.625 109.390625 L 172.261719 114.835938 C 170.484375 114.164062 168.574219 113.75 166.5625 113.75 L 166.28125 113.75 L 166.445312 111.472656 C 169.054688 108.378906 170.625 104.386719 170.625 100.03125 L 170.625 97.5 L 162.5 97.5 L 162.5 100.03125 C 162.5 105.355469 158.167969 109.6875 152.84375 109.6875 C 149.894531 109.6875 147.148438 108.367188 145.308594 106.058594 L 140.492188 100.046875 C 135.066406 93.265625 126.972656 89.375 118.285156 89.375 L 117.8125 89.375 C 111.695312 89.375 105.765625 91.171875 100.671875 94.5625 C 96.144531 97.585938 93.4375 102.640625 93.4375 108.082031 Z M 103.585938 137.90625 L 101.597656 110.027344 C 101.574219 109.699219 101.5625 109.371094 101.5625 109.042969 L 101.5625 108.082031 C 101.5625 105.359375 102.914062 102.835938 105.183594 101.324219 C 108.933594 98.824219 113.304688 97.5 117.8125 97.5 L 118.285156 97.5 C 124.488281 97.5 130.269531 100.277344 134.144531 105.125 L 138.957031 111.136719 C 142.351562 115.378906 147.410156 117.8125 152.84375 117.8125 C 154.597656 117.8125 156.296875 117.554688 157.898438 117.082031 L 156.414062 137.90625 C 155.425781 151.699219 143.824219 162.5 130 162.5 C 116.175781 162.5 104.574219 151.699219 103.585938 137.90625 Z M 130 170.625 C 133.769531 170.625 137.402344 169.980469 140.820312 168.839844 L 145.210938 177.628906 L 130 189.796875 L 114.789062 177.628906 L 119.179688 168.839844 C 122.597656 169.980469 126.230469 170.625 130 170.625 Z M 146.25 187.203125 L 146.25 194.984375 C 144.226562 193.847656 142.074219 192.988281 139.851562 192.324219 Z M 12.1875 126.742188 C 12.1875 124.0625 14.367188 121.875 17.054688 121.875 L 26.058594 121.875 L 32.226562 115.703125 C 33.488281 114.445312 35.164062 113.75 36.949219 113.75 C 39.824219 113.75 42.371094 115.585938 43.285156 118.3125 L 44.003906 120.46875 L 27.382812 133.769531 L 16.105469 131.515625 C 13.832031 131.058594 12.1875 129.054688 12.1875 126.742188 Z M 170.625 197.460938 L 170.625 247.8125 L 89.375 247.8125 L 89.375 197.460938 L 34.402344 138.558594 L 48.546875 127.242188 L 105.625 180.515625 L 105.625 212.9375 L 112.558594 205.996094 C 117.03125 201.523438 122.976562 199.0625 129.300781 199.0625 L 130.699219 199.0625 C 137.023438 199.0625 142.972656 201.523438 147.441406 205.996094 L 154.375 212.9375 L 154.375 180.515625 L 211.453125 127.242188 L 225.597656 138.558594 Z M 243.898438 131.515625 L 232.621094 133.769531 L 216 120.46875 L 216.71875 118.316406 C 217.628906 115.585938 220.175781 113.75 223.050781 113.75 C 224.832031 113.75 226.511719 114.445312 227.773438 115.703125 L 233.941406 121.875 L 242.945312 121.875 C 245.632812 121.875 247.8125 124.0625 247.8125 126.742188 C 247.8125 129.054688 246.167969 131.058594 243.898438 131.515625 Z M 243.898438 131.515625 "/>
</g>
</svg>
