<?xml version="1.0" encoding="UTF-8"?>
<svg xmlns="http://www.w3.org/2000/svg" xmlns:xlink="http://www.w3.org/1999/xlink" width="260pt" height="260pt" viewBox="0 0 260 260" version="1.1">
<g id="surface1">
<path style=" stroke:none;fill-rule:nonzero;fill:rgb(100%,72.54902%,27.843137%);fill-opacity:1;" d="M 197.960938 97.339844 C 197.960938 60.265625 167.796875 30.105469 130.722656 30.105469 C 93.648438 30.105469 63.484375 60.265625 63.484375 97.339844 C 63.484375 134.417969 93.648438 164.578125 130.722656 164.578125 C 167.796875 164.578125 197.960938 134.417969 197.960938 97.339844 Z M 130.722656 157.042969 C 97.804688 157.042969 71.019531 130.261719 71.019531 97.339844 C 71.019531 64.421875 97.804688 37.640625 130.722656 37.640625 C 163.644531 37.640625 190.425781 64.421875 190.425781 97.339844 C 190.425781 130.261719 163.644531 157.042969 130.722656 157.042969 Z M 130.722656 157.042969 "/>
<path style=" stroke:none;fill-rule:nonzero;fill:rgb(100%,72.54902%,27.843137%);fill-opacity:1;" d="M 177.550781 82.601562 C 176.839844 80.410156 174.816406 78.941406 172.511719 78.941406 L 144.433594 78.941406 L 135.757812 52.238281 C 135.046875 50.050781 133.023438 48.582031 130.722656 48.582031 C 128.421875 48.582031 126.398438 50.050781 125.6875 52.238281 L 117.011719 78.945312 L 88.933594 78.945312 C 86.632812 78.945312 84.609375 80.414062 83.898438 82.601562 C 83.1875 84.789062 83.960938 87.167969 85.820312 88.519531 L 108.535156 105.023438 L 99.859375 131.726562 C 99.148438 133.914062 99.921875 136.296875 101.785156 137.648438 C 103.644531 139 106.144531 139 108.007812 137.648438 L 130.722656 121.144531 L 153.4375 137.648438 C 154.371094 138.324219 155.460938 138.664062 156.550781 138.664062 C 157.640625 138.664062 158.734375 138.324219 159.664062 137.648438 C 161.527344 136.296875 162.296875 133.914062 161.585938 131.726562 L 152.910156 105.023438 L 175.625 88.519531 C 177.484375 87.167969 178.257812 84.789062 177.550781 82.601562 Z M 147.164062 99.882812 C 145.300781 101.238281 144.527344 103.613281 145.238281 105.804688 L 152.285156 127.496094 L 133.835938 114.089844 C 132.902344 113.414062 131.8125 113.074219 130.722656 113.074219 C 129.632812 113.074219 128.542969 113.414062 127.609375 114.089844 L 109.160156 127.496094 L 116.207031 105.804688 C 116.917969 103.613281 116.144531 101.238281 114.285156 99.882812 L 95.832031 86.476562 L 118.640625 86.476562 C 120.941406 86.476562 122.964844 85.007812 123.675781 82.820312 L 130.722656 61.125 L 137.769531 82.820312 C 138.484375 85.007812 140.507812 86.476562 142.804688 86.476562 L 165.617188 86.476562 Z M 147.164062 99.882812 "/>
<path style=" stroke:none;fill-rule:nonzero;fill:rgb(100%,72.54902%,27.843137%);fill-opacity:1;" d="M 230.847656 221.992188 L 195.519531 159.96875 L 201.707031 157.980469 C 209.164062 155.59375 214.085938 148.460938 213.679688 140.640625 L 213.210938 131.660156 C 213.066406 128.941406 214.078125 126.265625 215.988281 124.328125 L 222.296875 117.914062 C 227.789062 112.332031 228.832031 103.730469 224.835938 96.996094 L 220.246094 89.261719 C 218.859375 86.921875 218.515625 84.082031 219.300781 81.476562 L 221.90625 72.867188 C 224.175781 65.375 221.101562 57.273438 214.4375 53.167969 L 206.777344 48.449219 C 204.460938 47.023438 202.835938 44.671875 202.324219 41.996094 L 200.628906 33.164062 C 199.15625 25.472656 192.667969 19.726562 184.855469 19.1875 L 175.882812 18.574219 C 173.167969 18.386719 170.636719 17.058594 168.941406 14.929688 L 163.335938 7.894531 C 158.457031 1.769531 150.042969 -0.300781 142.875 2.851562 L 134.644531 6.476562 C 134.644531 6.476562 134.644531 6.476562 134.640625 6.476562 C 132.152344 7.574219 129.292969 7.574219 126.800781 6.476562 L 118.570312 2.851562 C 111.402344 -0.300781 102.988281 1.769531 98.109375 7.894531 L 92.503906 14.929688 C 90.808594 17.058594 88.28125 18.386719 85.5625 18.574219 L 76.589844 19.1875 C 68.777344 19.726562 62.292969 25.472656 60.816406 33.164062 L 59.125 41.996094 C 58.609375 44.667969 56.988281 47.023438 54.667969 48.449219 L 47.011719 53.164062 C 40.34375 57.269531 37.269531 65.375 39.539062 72.867188 L 42.144531 81.476562 C 42.933594 84.082031 42.589844 86.917969 41.199219 89.261719 L 36.609375 96.996094 C 32.613281 103.730469 33.65625 112.332031 39.148438 117.914062 L 45.457031 124.328125 C 47.363281 126.265625 48.378906 128.9375 48.238281 131.65625 L 47.765625 140.640625 C 47.359375 148.457031 52.28125 155.589844 59.734375 157.980469 L 65.925781 159.964844 L 30.597656 221.992188 C 29.53125 223.867188 29.570312 226.171875 30.703125 228.007812 C 31.835938 229.84375 33.886719 230.921875 36.03125 230.800781 L 65.558594 229.273438 L 79.304688 255.453125 C 80.308594 257.363281 82.269531 258.574219 84.425781 258.609375 C 84.460938 258.609375 84.496094 258.609375 84.527344 258.609375 C 86.644531 258.609375 88.605469 257.476562 89.652344 255.632812 L 125.605469 192.507812 C 127.269531 193.023438 128.996094 193.292969 130.722656 193.292969 C 132.449219 193.292969 134.171875 193.023438 135.839844 192.507812 L 171.792969 255.632812 C 172.84375 257.476562 174.800781 258.609375 176.917969 258.609375 C 176.949219 258.609375 176.984375 258.609375 177.019531 258.609375 C 179.175781 258.574219 181.136719 257.363281 182.140625 255.453125 L 195.886719 229.273438 L 225.417969 230.800781 C 227.578125 230.917969 229.613281 229.84375 230.742188 228.007812 C 231.875 226.171875 231.917969 223.867188 230.847656 221.992188 Z M 84.585938 249.300781 L 72.066406 225.457031 L 79.457031 212.484375 C 80.488281 210.671875 79.859375 208.375 78.050781 207.34375 C 76.246094 206.316406 73.941406 206.945312 72.910156 208.753906 L 65.519531 221.730469 L 38.625 223.125 L 72.582031 163.515625 C 73.21875 164.230469 73.761719 165.042969 74.167969 165.929688 L 77.929688 174.101562 C 79.878906 178.34375 83.398438 181.488281 87.550781 183.046875 L 81.664062 193.382812 C 80.632812 195.191406 81.265625 197.492188 83.074219 198.523438 C 83.664062 198.859375 84.304688 199.015625 84.9375 199.015625 C 86.246094 199.015625 87.519531 198.332031 88.214844 197.113281 L 95.667969 184.027344 C 95.972656 183.988281 96.28125 183.949219 96.585938 183.890625 L 105.449219 182.34375 C 108.128906 181.875 110.902344 182.558594 113.058594 184.21875 L 119.035156 188.820312 Z M 135.621094 184.429688 C 135.609375 184.4375 135.597656 184.441406 135.585938 184.449219 C 135.566406 184.460938 135.546875 184.472656 135.523438 184.484375 C 132.550781 186.175781 128.894531 186.175781 125.921875 184.484375 C 125.902344 184.472656 125.882812 184.460938 125.863281 184.449219 C 125.851562 184.441406 125.839844 184.4375 125.828125 184.429688 C 125.46875 184.21875 125.121094 183.996094 124.785156 183.738281 L 117.660156 178.25 C 114.625 175.910156 110.898438 174.664062 107.109375 174.664062 C 106.125 174.664062 105.136719 174.75 104.152344 174.921875 L 95.289062 176.46875 C 94.71875 176.570312 94.148438 176.613281 93.582031 176.613281 C 93.535156 176.609375 93.488281 176.609375 93.445312 176.609375 C 89.765625 176.542969 86.359375 174.390625 84.777344 170.949219 L 81.015625 162.777344 C 79.410156 159.285156 76.671875 156.445312 73.300781 154.683594 C 73.292969 154.679688 73.289062 154.675781 73.28125 154.671875 C 73.257812 154.660156 73.238281 154.648438 73.21875 154.640625 C 73.136719 154.597656 73.058594 154.558594 72.976562 154.519531 C 72.957031 154.507812 72.941406 154.5 72.921875 154.492188 C 72.175781 154.125 71.402344 153.808594 70.605469 153.554688 L 62.039062 150.808594 C 57.835938 149.460938 55.0625 145.441406 55.292969 141.035156 L 55.761719 132.050781 C 56.011719 127.226562 54.214844 122.484375 50.828125 119.042969 L 44.519531 112.628906 C 41.425781 109.484375 40.839844 104.636719 43.089844 100.84375 L 47.679688 93.105469 C 50.144531 88.953125 50.757812 83.917969 49.355469 79.292969 L 46.75 70.683594 C 45.472656 66.460938 47.203125 61.894531 50.960938 59.585938 L 58.621094 54.867188 C 62.734375 52.332031 65.617188 48.160156 66.523438 43.414062 L 68.21875 34.582031 C 69.046875 30.25 72.703125 27.011719 77.105469 26.707031 L 86.078125 26.089844 C 90.898438 25.757812 95.386719 23.402344 98.398438 19.625 L 104.003906 12.589844 C 106.753906 9.140625 111.496094 7.972656 115.535156 9.75 L 123.765625 13.371094 C 128.1875 15.320312 133.257812 15.320312 137.679688 13.371094 L 145.910156 9.75 C 149.953125 7.972656 154.691406 9.140625 157.441406 12.589844 L 163.046875 19.625 C 166.054688 23.40625 170.546875 25.757812 175.363281 26.089844 L 184.339844 26.710938 C 188.742188 27.011719 192.398438 30.25 193.226562 34.582031 L 194.921875 43.417969 C 195.832031 48.160156 198.710938 52.335938 202.824219 54.867188 L 210.480469 59.585938 C 214.242188 61.898438 215.972656 66.460938 214.695312 70.683594 L 212.085938 79.296875 C 210.6875 83.917969 211.300781 88.953125 213.765625 93.109375 L 218.355469 100.84375 C 220.605469 104.636719 220.019531 109.484375 216.921875 112.628906 L 210.617188 119.042969 C 207.230469 122.484375 205.429688 127.226562 205.683594 132.050781 L 206.152344 141.035156 C 206.382812 145.441406 203.609375 149.460938 199.40625 150.808594 L 190.839844 153.554688 C 190.042969 153.808594 189.269531 154.125 188.523438 154.492188 C 188.503906 154.5 188.484375 154.507812 188.46875 154.515625 C 188.386719 154.558594 188.304688 154.597656 188.222656 154.640625 C 188.203125 154.652344 188.183594 154.660156 188.164062 154.671875 C 188.15625 154.675781 188.148438 154.679688 188.144531 154.683594 C 184.773438 156.441406 182.035156 159.285156 180.429688 162.777344 L 176.667969 170.953125 C 175.089844 174.386719 171.683594 176.542969 168.007812 176.609375 C 167.953125 176.609375 167.898438 176.609375 167.847656 176.613281 C 167.285156 176.613281 166.71875 176.570312 166.152344 176.46875 L 157.292969 174.921875 C 152.535156 174.089844 147.609375 175.304688 143.785156 178.25 L 136.65625 183.738281 C 136.324219 183.996094 135.976562 184.21875 135.621094 184.429688 Z M 195.925781 221.730469 L 188.472656 208.644531 C 187.445312 206.835938 185.140625 206.207031 183.335938 207.238281 C 181.527344 208.269531 180.898438 210.566406 181.925781 212.378906 L 189.378906 225.457031 L 176.859375 249.300781 L 142.410156 188.820312 L 148.386719 184.21875 C 150.542969 182.558594 153.316406 181.875 155.996094 182.34375 L 164.859375 183.890625 C 165.164062 183.949219 165.472656 183.988281 165.777344 184.027344 L 173.230469 197.109375 C 173.925781 198.328125 175.199219 199.011719 176.507812 199.011719 C 177.140625 199.011719 177.78125 198.855469 178.371094 198.519531 C 180.175781 197.488281 180.804688 195.1875 179.777344 193.378906 L 173.894531 183.046875 C 178.046875 181.484375 181.5625 178.34375 183.515625 174.101562 L 187.273438 165.929688 C 187.683594 165.042969 188.222656 164.230469 188.863281 163.515625 L 222.816406 223.125 Z M 195.925781 221.730469 "/>
</g>
</svg>
