<?xml version="1.0" standalone="no"?>
<!DOCTYPE svg PUBLIC "-//W3C//DTD SVG 20010904//EN"
 "http://www.w3.org/TR/2001/REC-SVG-20010904/DTD/svg10.dtd">
<svg version="1.0" xmlns="http://www.w3.org/2000/svg"
 width="364.000000pt" height="59.000000pt" viewBox="0 0 364.000000 59.000000"
 preserveAspectRatio="xMidYMid meet">
<metadata>
Created by potrace 1.16, written by Peter Selinger 2001-2019
</metadata>
<g transform="translate(0.000000,59.000000) scale(0.100000,-0.100000)"
fill="#000000" stroke="none">
<path d="M72 332 l3 -168 33 -41 c40 -51 85 -67 165 -60 47 4 65 11 89 34 57
53 68 92 68 256 l0 147 -181 0 -180 0 3 -168z"/>
<path d="M550 285 c0 -208 1 -215 20 -215 18 0 20 7 20 65 l0 65 103 0 c112 0
141 11 178 66 29 45 26 134 -6 172 -42 50 -80 62 -204 62 l-111 0 0 -215z
m256 157 c30 -24 44 -55 44 -96 0 -86 -46 -116 -175 -116 l-85 0 0 115 0 115
98 0 c77 0 101 -4 118 -18z"/>
<path d="M1400 490 c0 -10 83 -197 120 -270 9 -19 30 -63 46 -98 15 -34 33
-61 38 -59 9 3 204 410 205 430 1 4 -91 7 -204 7 -134 0 -205 -4 -205 -10z"/>
<path d="M1912 483 c3 -15 16 -19 66 -21 l62 -3 0 -179 0 -180 -65 0 c-51 0
-65 -3 -65 -15 0 -13 23 -15 145 -15 122 0 145 2 145 15 0 12 -14 15 -65 15
l-65 0 0 180 0 179 62 3 c50 2 63 6 66 21 3 16 -9 17 -143 17 -134 0 -146 -1
-143 -17z"/>
<path d="M2330 480 c0 -18 7 -20 80 -20 l80 0 0 -195 c0 -167 2 -195 15 -195
13 0 15 28 15 195 l0 195 80 0 c73 0 80 2 80 20 0 19 -7 20 -175 20 -168 0
-175 -1 -175 -20z"/>
<path d="M2924 463 c-48 -113 -97 -231 -104 -253 -4 -14 -19 -51 -33 -83 l-26
-57 25 0 c13 0 24 6 24 13 0 6 11 36 25 65 l24 53 102 -3 102 -3 21 -60 c16
-47 26 -61 44 -63 l22 -3 -24 63 c-14 35 -45 113 -71 173 -25 61 -53 129 -62
153 -19 55 -46 57 -69 5z m85 -113 c23 -52 41 -101 41 -107 0 -10 -26 -13 -95
-13 -52 0 -95 3 -95 6 0 21 94 224 100 217 5 -4 27 -51 49 -103z"/>
<path d="M3260 285 l0 -215 155 0 c131 0 155 2 155 15 0 13 -22 15 -140 15
l-140 0 0 85 0 85 120 0 c113 0 120 1 120 20 0 19 -7 20 -120 20 l-120 0 0 75
0 74 137 3 c122 3 138 5 141 21 3 16 -9 17 -152 17 l-156 0 0 -215z"/>
</g>
</svg>
