<?xml version="1.0" encoding="UTF-8" standalone="no"?>
<svg
   xmlns:dc="http://purl.org/dc/elements/1.1/"
   xmlns:cc="http://creativecommons.org/ns#"
   xmlns:rdf="http://www.w3.org/1999/02/22-rdf-syntax-ns#"
   xmlns:svg="http://www.w3.org/2000/svg"
   xmlns="http://www.w3.org/2000/svg"
   xmlns:sodipodi="http://sodipodi.sourceforge.net/DTD/sodipodi-0.dtd"
   xmlns:inkscape="http://www.inkscape.org/namespaces/inkscape"
   id="bhf_icon-logo"
   viewBox="0 0 500 125"
   width="100%"
   height="100%"
   version="1.1"
   sodipodi:docname="shoptime-logo.svg"
   inkscape:export-filename="C:\Users\suitedoalex\sites\shoptime-logo-8.png"
   inkscape:export-xdpi="9.6000004"
   inkscape:export-ydpi="9.6000004"
   inkscape:version="0.92.2 (5c3e80d, 2017-08-06)">
  <metadata
     id="metadata13">
    <rdf:RDF>
      <cc:Work
         rdf:about="">
        <dc:format>image/svg+xml</dc:format>
        <dc:type
           rdf:resource="http://purl.org/dc/dcmitype/StillImage" />
      </cc:Work>
    </rdf:RDF>
  </metadata>
  <defs
     id="defs11" />
  <sodipodi:namedview
     pagecolor="#ffffff"
     bordercolor="#666666"
     borderopacity="1"
     objecttolerance="10"
     gridtolerance="10"
     guidetolerance="10"
     inkscape:pageopacity="0"
     inkscape:pageshadow="2"
     inkscape:window-width="1600"
     inkscape:window-height="837"
     id="namedview9"
     showgrid="false"
     inkscape:zoom="0.568"
     inkscape:cx="250"
     inkscape:cy="62.5"
     inkscape:window-x="-8"
     inkscape:window-y="-8"
     inkscape:window-maximized="1"
     inkscape:current-layer="bhf_icon-logo" />
  <path
     fill="#f79a5a"
     d="m0 29.9 0 65.9 66.9 0 0-65.9z"
     id="path2" />
  <path
     fill="#7794cb"
     d="M66.9 29.9 0 95.8l0-33L33.4 29.9l33.5 0zm0 65.9-33.4 0 33.4-32.9 0 32.9z"
     id="path4" />
  <path
     fill="#f79a5a"
     d="m291.7 76.7c0 19.9-15.5 23.4-31.7 18.5l0 27.4-15.5 2.3 0-95.1 12.2 0 1.5 4.8c4.4-5.4 33.5-15.5 33.5 12.5zM276.2 48.4c0-9-9.5-7.4-16.2-4l0 38.6c5.2 1.6 16.2 3.4 16.2-7zm-41.1 26.6c0 13.8-8.4 22.2-24.3 22.2-15.9 0-24.2-8.5-24.2-22.2l0-24.3c0-13.8 8.3-22.2 24.2-22.2 15.9 0 24.3 8.5 24.3 22.2zm-15.5-25.9c0-5.7-3.5-7.9-8.9-7.9-5.4 0-8.7 2.2-8.7 7.9l0 27.5c0 5.7 3.3 7.9 8.7 7.9 5.4 0 8.9-2.2 8.9-7.9zm-59.3 46.8 0-47.9c0.3-7.6-10-5.4-14.9-2.9l0 50.7-15.5 0 0-93.5 15.5-2.3 0 33.9c12.3-8.5 30.4-8.5 30.4 8.6l0 53.3zM81 94.2c0.3-2.6 2.2-12.3 2.2-12.3 7.6 2.4 23.2 6.4 23.2-4.1 0-14-26-1.3-26-29.7C80.3 22 110.1 28.2 119.9 31.5l-1.9 12.4c-4.8-1.5-22.4-7.4-22.4 3.7 0 12.5 26 1.5 26 28.6 0 12.8-6 27.4-40.5 18zm389.5-25.6 0 5.2c0 15.6 17.2 11 27.2 8.3L500 93.8c-21.5 6.9-44.9 5.5-44.9-19.9l0-22.1c0-15 8.6-23.3 23.1-23.3 16 0 21.7 8.6 21.7 23l0 17zm15.1-19.4c0-5.6-1.7-8.6-7.3-8.6-5.5 0-7.7 2.7-7.7 8.6l0 7.5 15.1 0zm-55.7 46.6 0-47.9c0-7.5-9.2-5.4-14.1-3l0 50.8-15.5 0 0-47.9c0-7.6-10.6-5.1-14.1-3l0 50.8-15.5 0 0-66 12.9 0 1.5 4.8c7.2-7.1 24.5-9.3 29 0 11.2-8.7 31.2-10.3 31.2 7.9l0 53.3zm-86.8-93 15.5 0 0 18.5-15.5 0zm0 27 15.5 0 0 66-15.5 0zm-9.7 65.2C320.3 99.4 305.2 98.8 305.2 81.8l0-38.4-7.5 0 0-13.5 7.5 0 0-17.3 15.5-1.8 0 19.1 13.4 0-0.7 13.5-12.7 0 0 36.1c0 6.1 6.4 4.7 11.3 3.5z"
     id="path6" />
</svg>
