<?xml version="1.0" encoding="UTF-8"?>
<svg xmlns="http://www.w3.org/2000/svg" xmlns:xlink="http://www.w3.org/1999/xlink" width="260pt" height="260pt" viewBox="0 0 260 260" version="1.1">
<g id="surface1">
<path style=" stroke:none;fill-rule:nonzero;fill:rgb(100%,100%,100%);fill-opacity:1;" d="M 237.644531 231.441406 L 203.226562 148.34375 C 202.347656 146.226562 199.921875 145.222656 197.804688 146.097656 C 195.6875 146.976562 194.679688 149.402344 195.558594 151.519531 L 226.675781 226.644531 L 198.292969 218.417969 C 196.429688 217.878906 194.441406 218.703125 193.503906 220.402344 L 179.25 246.289062 L 145.859375 165.679688 C 184.398438 158.246094 213.597656 124.269531 213.597656 83.597656 C 213.597656 37.503906 176.097656 0 130 0 C 83.902344 0 46.402344 37.503906 46.402344 83.597656 C 46.402344 102.269531 52.554688 119.527344 62.941406 133.457031 L 22.355469 231.441406 C 21.742188 232.917969 22.03125 234.609375 23.097656 235.796875 C 24.160156 236.984375 25.808594 237.460938 27.34375 237.015625 L 60.828125 227.3125 L 77.644531 257.851562 C 78.378906 259.183594 79.773438 260 81.277344 260 C 81.355469 260 81.433594 259.996094 81.507812 259.992188 C 83.101562 259.90625 84.503906 258.914062 85.113281 257.4375 L 117.273438 179.796875 C 118.148438 177.679688 117.144531 175.253906 115.027344 174.375 C 112.910156 173.5 110.484375 174.503906 109.605469 176.621094 L 80.75 246.289062 L 66.496094 220.402344 C 65.558594 218.703125 63.570312 217.878906 61.707031 218.417969 L 33.324219 226.644531 L 68.949219 140.640625 C 84.214844 156.96875 105.933594 167.195312 130 167.195312 C 132.484375 167.195312 134.941406 167.078125 137.371094 166.867188 L 174.886719 257.4375 C 175.496094 258.914062 176.898438 259.90625 178.492188 259.992188 C 178.570312 259.996094 178.644531 260 178.722656 260 C 180.226562 260 181.621094 259.183594 182.355469 257.851562 L 199.171875 227.3125 L 232.660156 237.015625 C 234.191406 237.460938 235.839844 236.984375 236.90625 235.796875 C 237.96875 234.609375 238.257812 232.917969 237.644531 231.441406 Z M 54.699219 83.597656 C 54.699219 42.078125 88.480469 8.296875 130 8.296875 C 171.519531 8.296875 205.300781 42.078125 205.300781 83.597656 C 205.300781 125.117188 171.519531 158.898438 130 158.898438 C 88.480469 158.898438 54.699219 125.117188 54.699219 83.597656 Z M 54.699219 83.597656 "/>
<path style=" stroke:none;fill-rule:nonzero;fill:rgb(100%,100%,100%);fill-opacity:1;" d="M 177.9375 68.019531 C 177.460938 66.550781 176.203125 65.46875 174.679688 65.210938 L 146.761719 60.527344 L 133.679688 35.421875 C 132.964844 34.050781 131.546875 33.191406 130 33.191406 C 128.453125 33.191406 127.035156 34.050781 126.320312 35.421875 L 113.238281 60.527344 L 85.320312 65.210938 C 83.796875 65.46875 82.539062 66.550781 82.0625 68.019531 C 81.582031 69.492188 81.960938 71.105469 83.046875 72.210938 L 102.878906 92.410156 L 98.707031 120.410156 C 98.480469 121.9375 99.121094 123.46875 100.371094 124.375 C 101.621094 125.285156 103.277344 125.421875 104.660156 124.734375 L 130 112.113281 L 155.339844 124.734375 C 155.925781 125.027344 156.558594 125.167969 157.1875 125.167969 C 158.050781 125.167969 158.90625 124.902344 159.628906 124.378906 C 160.878906 123.46875 161.519531 121.9375 161.292969 120.410156 L 157.121094 92.410156 L 176.953125 72.210938 C 178.039062 71.105469 178.417969 69.492188 177.9375 68.019531 Z M 149.753906 88.070312 C 148.839844 89 148.417969 90.300781 148.609375 91.589844 L 151.914062 113.757812 L 131.851562 103.765625 C 131.265625 103.476562 130.632812 103.332031 130 103.332031 C 129.367188 103.332031 128.734375 103.476562 128.152344 103.765625 L 108.085938 113.757812 L 111.390625 91.589844 C 111.582031 90.300781 111.160156 89 110.246094 88.070312 L 94.542969 72.078125 L 116.648438 68.367188 C 117.933594 68.152344 119.039062 67.347656 119.640625 66.191406 L 130 46.316406 L 140.359375 66.195312 C 140.960938 67.347656 142.066406 68.152344 143.351562 68.367188 L 165.457031 72.078125 Z M 149.753906 88.070312 "/>
<path style=" stroke:none;fill-rule:nonzero;fill:rgb(100%,100%,100%);fill-opacity:1;" d="M 192.847656 87.78125 C 190.578125 87.480469 188.492188 89.078125 188.191406 91.351562 C 184.34375 120.398438 159.324219 142.300781 130 142.300781 C 97.628906 142.300781 71.296875 115.96875 71.296875 83.597656 C 71.296875 51.226562 97.628906 24.894531 130 24.894531 C 159.328125 24.894531 184.34375 46.796875 188.191406 75.84375 C 188.492188 78.117188 190.582031 79.71875 192.847656 79.414062 C 195.121094 79.113281 196.71875 77.027344 196.417969 74.753906 C 192.023438 41.597656 163.472656 16.597656 130 16.597656 C 93.054688 16.597656 62.996094 46.652344 62.996094 83.597656 C 62.996094 120.542969 93.054688 150.597656 130 150.597656 C 163.472656 150.597656 192.023438 125.597656 196.417969 92.441406 C 196.71875 90.167969 195.121094 88.082031 192.847656 87.78125 Z M 192.847656 87.78125 "/>
</g>
</svg>
