<?xml version="1.0" encoding="UTF-8"?>
<svg xmlns="http://www.w3.org/2000/svg" xmlns:xlink="http://www.w3.org/1999/xlink" width="32pt" height="32pt" viewBox="0 0 32 32" version="1.1">
<g id="surface1">
<path style=" stroke:none;fill-rule:nonzero;fill:rgb(92.941176%,14.509804%,30.588235%);fill-opacity:1;" d="M 16 0 C 7.164062 0 0 7.164062 0 16 C 0 24.835938 7.164062 32 16 32 C 24.835938 32 32 24.835938 32 16 C 32 7.164062 24.835938 0 16 0 Z M 22.105469 8.148438 L 19.890625 8.148438 C 18.15625 8.148438 17.820312 8.972656 17.820312 10.183594 L 17.820312 12.851562 L 21.957031 12.851562 L 21.957031 17.03125 L 17.820312 17.03125 L 17.820312 27.753906 L 13.503906 27.753906 L 13.503906 17.03125 L 9.894531 17.03125 L 9.894531 12.851562 L 13.503906 12.851562 L 13.503906 9.769531 C 13.503906 6.195312 15.6875 4.246094 18.878906 4.246094 L 22.105469 4.25 Z M 22.105469 8.148438 "/>
</g>
</svg>
