<?xml version="1.0" encoding="UTF-8"?>
<svg xmlns="http://www.w3.org/2000/svg" xmlns:xlink="http://www.w3.org/1999/xlink" width="32pt" height="32pt" viewBox="0 0 32 32" version="1.1">
<g id="surface1">
<path style=" stroke:none;fill-rule:nonzero;fill:rgb(92.941176%,14.509804%,30.588235%);fill-opacity:1;" d="M 16 0 C 7.164062 0 0 7.164062 0 16 C 0 24.839844 7.164062 32 16 32 C 24.835938 32 32 24.839844 32 16 C 32 7.164062 24.835938 0 16 0 Z M 24.378906 13.136719 C 24.386719 13.296875 24.390625 13.457031 24.390625 13.621094 C 24.390625 18.597656 20.601562 24.335938 13.675781 24.335938 C 11.550781 24.335938 9.570312 23.714844 7.902344 22.644531 C 8.199219 22.679688 8.5 22.695312 8.804688 22.695312 C 10.566406 22.695312 12.191406 22.09375 13.480469 21.085938 C 11.832031 21.054688 10.441406 19.96875 9.960938 18.472656 C 10.191406 18.515625 10.425781 18.539062 10.671875 18.539062 C 11.011719 18.539062 11.347656 18.492188 11.660156 18.40625 C 9.941406 18.058594 8.640625 16.535156 8.640625 14.710938 C 8.640625 14.695312 8.640625 14.683594 8.640625 14.664062 C 9.152344 14.949219 9.730469 15.117188 10.347656 15.136719 C 9.339844 14.460938 8.675781 13.308594 8.675781 12 C 8.675781 11.3125 8.859375 10.664062 9.183594 10.109375 C 11.039062 12.386719 13.816406 13.886719 16.945312 14.042969 C 16.882812 13.765625 16.847656 13.480469 16.847656 13.183594 C 16.847656 11.105469 18.53125 9.421875 20.613281 9.421875 C 21.691406 9.421875 22.671875 9.875 23.359375 10.609375 C 24.214844 10.441406 25.023438 10.125 25.75 9.695312 C 25.46875 10.574219 24.871094 11.3125 24.097656 11.777344 C 24.859375 11.6875 25.585938 11.484375 26.257812 11.1875 C 25.75 11.941406 25.113281 12.605469 24.378906 13.136719 Z M 24.378906 13.136719 "/>
</g>
</svg>
